<svg preserveAspectRatio="none" width="100%" height="100%" overflow="visible" style="display: block;" viewBox="0 0 175 22" fill="none" xmlns="http://www.w3.org/2000/svg">
<g id="Rating Stars">
<path id="Vector" d="M12.9318 0.553765L15.8741 6.23179C15.941 6.37591 16.0463 6.50075 16.1794 6.59385C16.3125 6.68696 16.4689 6.74509 16.6328 6.76245L23.1281 7.68226C23.3162 7.70536 23.4935 7.77914 23.6393 7.89497C23.7852 8.0108 23.8935 8.16391 23.9517 8.3364C24.01 8.5089 24.0156 8.69367 23.9681 8.86912C23.9205 9.04458 23.8218 9.20349 23.6833 9.32729L19.0015 13.7671C18.882 13.8738 18.7923 14.0074 18.7406 14.1557C18.6889 14.304 18.6768 14.4623 18.7054 14.6162L19.8342 20.8602C19.8669 21.0397 19.8462 21.2242 19.7746 21.393C19.7029 21.5617 19.5832 21.7079 19.4289 21.8148C19.2747 21.9217 19.0921 21.985 18.902 21.9977C18.712 22.0103 18.522 21.9717 18.3538 21.8862L12.5062 18.9322C12.3564 18.8619 12.1918 18.8254 12.025 18.8254C11.8582 18.8254 11.6936 18.8619 11.5439 18.9322L5.69626 21.8862C5.52803 21.9717 5.33807 22.0103 5.148 21.9977C4.95793 21.985 4.77539 21.9217 4.62114 21.8148C4.46689 21.7079 4.34712 21.5617 4.27547 21.393C4.20382 21.2242 4.18316 21.0397 4.21585 20.8602L5.34466 14.5454C5.37327 14.3915 5.36117 14.2332 5.30946 14.0849C5.25775 13.9367 5.16807 13.8031 5.04858 13.6964L0.311261 9.32729C0.171107 9.20011 0.0725438 9.0368 0.02751 8.85716C-0.0175239 8.67751 -0.00709576 8.48924 0.0575309 8.31515C0.122158 8.14106 0.23821 7.98861 0.39163 7.87628C0.54505 7.76395 0.729255 7.69656 0.921931 7.68226L7.41724 6.76245C7.58119 6.74509 7.73752 6.68696 7.87064 6.59385C8.00376 6.50075 8.10903 6.37591 8.17595 6.23179L11.1183 0.553765C11.1984 0.388392 11.3263 0.248382 11.487 0.15026C11.6477 0.0521379 11.8344 0 12.025 0C12.2157 0 12.4024 0.0521379 12.563 0.15026C12.7237 0.248382 12.8516 0.388392 12.9318 0.553765V0.553765Z" fill="var(--fill-0, #FFA600)"/>
<path id="Vector_2" d="M50.8541 0.553765L53.5513 6.23179C53.6126 6.37591 53.7091 6.50075 53.8311 6.59385C53.9531 6.68696 54.0964 6.74509 54.2467 6.76245L60.2008 7.68226C60.3732 7.70536 60.5357 7.77914 60.6694 7.89497C60.8031 8.0108 60.9024 8.16391 60.9558 8.3364C61.0091 8.5089 61.0143 8.69367 60.9707 8.86912C60.9272 9.04458 60.8366 9.20349 60.7097 9.32729L56.418 13.7671C56.3085 13.8738 56.2263 14.0074 56.1789 14.1557C56.1315 14.304 56.1204 14.4623 56.1466 14.6162L57.1813 20.8602C57.2113 21.0397 57.1924 21.2242 57.1267 21.393C57.061 21.5617 56.9512 21.7079 56.8098 21.8148C56.6684 21.9217 56.5011 21.985 56.3269 21.9977C56.1526 22.0103 55.9785 21.9717 55.8243 21.8862L50.464 18.9322C50.3267 18.8619 50.1758 18.8254 50.0229 18.8254C49.87 18.8254 49.7192 18.8619 49.5819 18.9322L44.2216 21.8862C44.0674 21.9717 43.8932 22.0103 43.719 21.9977C43.5448 21.985 43.3774 21.9217 43.236 21.8148C43.0946 21.7079 42.9849 21.5617 42.9192 21.393C42.8535 21.2242 42.8346 21.0397 42.8645 20.8602L43.8993 14.5454C43.9255 14.3915 43.9144 14.2332 43.867 14.0849C43.8196 13.9367 43.7374 13.8031 43.6279 13.6964L39.2853 9.32729C39.1568 9.20011 39.0665 9.0368 39.0252 8.85716C38.9839 8.67751 38.9935 8.48924 39.0527 8.31515C39.112 8.14106 39.2184 7.98861 39.359 7.87628C39.4996 7.76395 39.6685 7.69656 39.8451 7.68226L45.7991 6.76245C45.9494 6.74509 46.0927 6.68696 46.2148 6.59385C46.3368 6.50075 46.4333 6.37591 46.4946 6.23179L49.1917 0.553765C49.2652 0.388392 49.3825 0.248382 49.5298 0.15026C49.677 0.0521379 49.8482 0 50.0229 0C50.1977 0 50.3688 0.0521379 50.5161 0.15026C50.6634 0.248382 50.7807 0.388392 50.8541 0.553765V0.553765Z" fill="var(--fill-0, #FFA600)"/>
<path id="Vector_3" d="M88.393 0.553765L91.2127 6.23179C91.2768 6.37591 91.3777 6.50075 91.5053 6.59385C91.6328 6.68696 91.7827 6.74509 91.9398 6.76245L98.1644 7.68226C98.3447 7.70536 98.5146 7.77914 98.6544 7.89497C98.7941 8.0108 98.898 8.16391 98.9538 8.3364C99.0095 8.5089 99.015 8.69367 98.9694 8.86912C98.9239 9.04458 98.8292 9.20349 98.6965 9.32729L94.2097 13.7671C94.0952 13.8738 94.0093 14.0074 93.9597 14.1557C93.9102 14.304 93.8986 14.4623 93.926 14.6162L95.0078 20.8602C95.0391 21.0397 95.0193 21.2242 94.9506 21.393C94.882 21.5617 94.7672 21.7079 94.6194 21.8148C94.4715 21.9217 94.2966 21.985 94.1145 21.9977C93.9323 22.0103 93.7503 21.9717 93.589 21.8862L87.9851 18.9322C87.8416 18.8619 87.6838 18.8254 87.524 18.8254C87.3641 18.8254 87.2064 18.8619 87.0629 18.9322L81.4589 21.8862C81.2977 21.9717 81.1156 22.0103 80.9335 21.9977C80.7514 21.985 80.5764 21.9217 80.4286 21.8148C80.2808 21.7079 80.166 21.5617 80.0973 21.393C80.0287 21.2242 80.0089 21.0397 80.0402 20.8602L81.122 14.5454C81.1494 14.3915 81.1378 14.2332 81.0882 14.0849C81.0387 13.9367 80.9527 13.8031 80.8382 13.6964L76.2983 9.32729C76.164 9.20011 76.0695 9.0368 76.0264 8.85716C75.9832 8.67751 75.9932 8.48924 76.0551 8.31515C76.1171 8.14106 76.2283 7.98861 76.3753 7.87628C76.5223 7.76395 76.6989 7.69656 76.8835 7.68226L83.1082 6.76245C83.2653 6.74509 83.4151 6.68696 83.5427 6.59385C83.6703 6.50075 83.7712 6.37591 83.8353 6.23179L86.655 0.553765C86.7318 0.388392 86.8544 0.248382 87.0084 0.15026C87.1624 0.0521379 87.3413 0 87.524 0C87.7067 0 87.8856 0.0521379 88.0396 0.15026C88.1935 0.248382 88.3162 0.388392 88.393 0.553765V0.553765Z" fill="var(--fill-0, #FFA600)"/>
<path id="Vector_4" d="M125.854 0.553765L128.551 6.23179C128.613 6.37591 128.709 6.50075 128.831 6.59385C128.953 6.68696 129.096 6.74509 129.247 6.76245L135.201 7.68226C135.373 7.70536 135.536 7.77914 135.669 7.89497C135.803 8.0108 135.902 8.16391 135.956 8.3364C136.009 8.5089 136.014 8.69367 135.971 8.86912C135.927 9.04458 135.837 9.20349 135.71 9.32729L131.418 13.7671C131.308 13.8738 131.226 14.0074 131.179 14.1557C131.131 14.304 131.12 14.4623 131.147 14.6162L132.181 20.8602C132.211 21.0397 132.192 21.2242 132.127 21.393C132.061 21.5617 131.951 21.7079 131.81 21.8148C131.668 21.9217 131.501 21.985 131.327 21.9977C131.153 22.0103 130.979 21.9717 130.824 21.8862L125.464 18.9322C125.327 18.8619 125.176 18.8254 125.023 18.8254C124.87 18.8254 124.719 18.8619 124.582 18.9322L119.222 21.8862C119.067 21.9717 118.893 22.0103 118.719 21.9977C118.545 21.985 118.377 21.9217 118.236 21.8148C118.095 21.7079 117.985 21.5617 117.919 21.393C117.854 21.2242 117.835 21.0397 117.865 20.8602L118.899 14.5454C118.925 14.3915 118.914 14.2332 118.867 14.0849C118.82 13.9367 118.737 13.8031 118.628 13.6964L114.285 9.32729C114.157 9.20011 114.066 9.0368 114.025 8.85716C113.984 8.67751 113.993 8.48924 114.053 8.31515C114.112 8.14106 114.218 7.98861 114.359 7.87628C114.5 7.76395 114.668 7.69656 114.845 7.68226L120.799 6.76245C120.949 6.74509 121.093 6.68696 121.215 6.59385C121.337 6.50075 121.433 6.37591 121.495 6.23179L124.192 0.553765C124.265 0.388392 124.382 0.248382 124.53 0.15026C124.677 0.0521379 124.848 0 125.023 0C125.198 0 125.369 0.0521379 125.516 0.15026C125.663 0.248382 125.781 0.388392 125.854 0.553765V0.553765Z" fill="var(--fill-0, #FFA600)"/>
<path id="Vector_5" d="M163.932 0.553765L166.874 6.23179C166.941 6.37591 167.046 6.50075 167.179 6.59385C167.313 6.68696 167.469 6.74509 167.633 6.76245L174.128 7.68226C174.316 7.70536 174.493 7.77914 174.639 7.89497C174.785 8.0108 174.894 8.16391 174.952 8.3364C175.01 8.5089 175.016 8.69367 174.968 8.86912C174.921 9.04458 174.822 9.20349 174.683 9.32729L170.001 13.7671C169.882 13.8738 169.792 14.0074 169.741 14.1557C169.689 14.304 169.677 14.4623 169.705 14.6162L170.834 20.8602C170.867 21.0397 170.846 21.2242 170.775 21.393C170.703 21.5617 170.583 21.7079 170.429 21.8148C170.275 21.9217 170.092 21.985 169.902 21.9977C169.712 22.0103 169.522 21.9717 169.354 21.8862L163.506 18.9322C163.356 18.8619 163.192 18.8254 163.025 18.8254C162.858 18.8254 162.694 18.8619 162.544 18.9322L156.696 21.8862C156.528 21.9717 156.338 22.0103 156.148 21.9977C155.958 21.985 155.775 21.9217 155.621 21.8148C155.467 21.7079 155.347 21.5617 155.275 21.393C155.204 21.2242 155.183 21.0397 155.216 20.8602L156.345 14.5454C156.373 14.3915 156.361 14.2332 156.309 14.0849C156.258 13.9367 156.168 13.8031 156.049 13.6964L151.311 9.32729C151.171 9.20011 151.073 9.0368 151.028 8.85716C150.982 8.67751 150.993 8.48924 151.058 8.31515C151.122 8.14106 151.238 7.98861 151.392 7.87628C151.545 7.76395 151.729 7.69656 151.922 7.68226L158.417 6.76245C158.581 6.74509 158.738 6.68696 158.871 6.59385C159.004 6.50075 159.109 6.37591 159.176 6.23179L162.118 0.553765C162.198 0.388392 162.326 0.248382 162.487 0.15026C162.648 0.0521379 162.834 0 163.025 0C163.216 0 163.402 0.0521379 163.563 0.15026C163.724 0.248382 163.852 0.388392 163.932 0.553765V0.553765Z" fill="var(--fill-0, #FFA600)"/>
</g>
</svg>
