<svg preserveAspectRatio="none" width="100%" height="100%" overflow="visible" style="display: block;" viewBox="0 0 57 49" fill="none" xmlns="http://www.w3.org/2000/svg">
<path id="&#226;&#128;&#156;" d="M21.1886 0L12.1371 36.4056L10.4914 27.9438C13.7829 27.9438 16.4571 28.9277 18.5143 30.8956C20.5714 32.7323 21.6 35.2249 21.6 38.3735C21.6 41.5221 20.5714 44.0803 18.5143 46.0482C16.4571 48.0161 13.92 49 10.9029 49C7.61143 49 4.93714 48.0161 2.88 46.0482C0.96 43.9491 0 41.3909 0 38.3735C0 37.1928 0.0685713 36.1432 0.205714 35.2249C0.342857 34.3066 0.617143 33.1914 1.02857 31.8795C1.44 30.5676 1.98857 28.9933 2.67428 27.1566L11.3143 0H21.1886ZM56.16 0L47.1086 36.4056L45.4629 27.9438C48.7543 27.9438 51.4286 28.9277 53.4857 30.8956C55.5429 32.7323 56.5714 35.2249 56.5714 38.3735C56.5714 41.5221 55.5429 44.0803 53.4857 46.0482C51.4286 48.0161 48.8914 49 45.8743 49C42.5829 49 39.9086 48.0161 37.8514 46.0482C35.9314 43.9491 34.9714 41.3909 34.9714 38.3735C34.9714 37.1928 35.04 36.1432 35.1771 35.2249C35.3143 34.3066 35.5886 33.1914 36 31.8795C36.4114 30.5676 36.96 28.9933 37.6457 27.1566L46.2857 0H56.16Z" fill="var(--fill-0, #31422D)"/>
</svg>
