<svg width="1321" height="735" viewBox="0 0 1321 735" fill="none" xmlns="http://www.w3.org/2000/svg">
<path d="M6 504L48.3005 462.03C50.5466 459.801 53.2134 458.033 56.1484 456.827C59.0835 455.62 62.2293 455 65.4061 455H134" stroke="#59D279"/>
<path d="M211 456H368V454H211V456Z" stroke="#59D279"/>
<path d="M6 248L48.3005 290.827C50.5466 293.101 53.2134 294.905 56.1484 296.136C59.0835 297.367 62.2293 298 65.4061 298H134" stroke="#59D279"/>
<path d="M210 297H349V299H210V297Z" stroke="#59D279"/>
<path opacity="0.1" d="M519.5 621C663.922 621 781 503.922 781 359.5C781 215.078 663.922 98 519.5 98C375.078 98 258 215.078 258 359.5C258 503.922 375.078 621 519.5 621Z" fill="url(#paint0_linear_41_92)"/>
<path opacity="0.1" d="M519 581C641.607 581 741 482.055 741 360C741 237.945 641.607 139 519 139C396.393 139 297 237.945 297 360C297 482.055 396.393 581 519 581Z" fill="url(#paint1_linear_41_92)"/>
<path d="M352 518H438V516H352V518Z" stroke="#59D279"/>
<g filter="url(#filter0_d_41_92)">
<path opacity="0.3" d="M325.815 543.394C340.278 543.394 352.003 531.669 352.003 517.206C352.003 502.743 340.278 491.019 325.815 491.019C311.352 491.019 299.628 502.743 299.628 517.206C299.628 531.669 311.352 543.394 325.815 543.394Z" fill="white"/>
</g>
<path d="M334.701 507H316.299C315.69 507.002 315.106 507.256 314.676 507.705C314.245 508.154 314.002 508.763 314 509.399V531L318.6 526.2H334.701C335.311 526.198 335.894 525.944 336.325 525.495C336.756 525.045 336.998 524.435 337 523.8V509.399C336.998 508.763 336.755 508.154 336.324 507.705C335.894 507.256 335.31 507.002 334.701 507ZM325.5 521.401L324.12 519.961L326.19 517.801H320.9V515.4H326.076L324.006 513.24L325.5 511.8L330.1 516.599L325.5 521.401Z" fill="#91FFAE"/>
<path d="M276 377H362V375H276V377Z" stroke="#59D279"/>
<g opacity="0.3" filter="url(#filter1_d_41_92)">
<path d="M232.188 403.375C246.651 403.375 258.375 391.651 258.375 377.188C258.375 362.725 246.651 351 232.188 351C217.725 351 206 362.725 206 377.188C206 391.651 217.725 403.375 232.188 403.375Z" fill="white"/>
</g>
<path d="M244.462 384.575L238.757 379.389C238.488 379.142 238.134 379.01 237.769 379.021C237.404 379.032 237.059 379.186 236.806 379.449L233.447 382.903C232.639 382.748 231.014 382.241 229.341 380.573C227.669 378.898 227.162 377.269 227.011 376.467L230.463 373.108C230.725 372.854 230.878 372.508 230.889 372.144C230.9 371.779 230.769 371.425 230.523 371.155L225.337 365.452C225.091 365.182 224.75 365.018 224.386 364.995C224.022 364.972 223.663 365.092 223.386 365.33L220.34 367.941C220.098 368.185 219.953 368.509 219.932 368.852C219.912 369.203 219.511 377.513 225.955 383.961C231.577 389.582 238.619 389.992 240.559 389.992C240.841 389.992 241.015 389.984 241.062 389.982C241.405 389.962 241.729 389.816 241.971 389.572L244.582 386.526C244.82 386.249 244.94 385.891 244.918 385.526C244.896 385.162 244.732 384.821 244.462 384.575Z" fill="#91FFAE"/>
<path d="M352 216H412V214H352V216Z" stroke="#59D279"/>
<g opacity="0.3" filter="url(#filter2_d_41_92)">
<path d="M312.188 241.375C326.651 241.375 338.375 229.651 338.375 215.188C338.375 200.725 326.651 189 312.188 189C297.725 189 286 200.725 286 215.188C286 229.651 297.725 241.375 312.188 241.375Z" fill="white"/>
</g>
<path d="M311.872 227.146C314.922 227.145 317.846 225.881 320.003 223.63C322.159 221.38 323.371 218.329 323.372 215.146C323.371 211.964 322.159 208.912 320.003 206.662C317.846 204.412 314.922 203.147 311.872 203.146C308.823 203.147 305.898 204.412 303.742 206.662C301.585 208.912 300.373 211.964 300.372 215.146C300.373 218.329 301.585 221.38 303.742 223.63C305.898 225.881 308.823 227.145 311.872 227.146ZM312.471 205.527V213.054H316.481L310.721 224.766V217.238H306.859L312.471 205.527Z" fill="#91FFAE"/>
<path d="M490 189L448.968 140.489C446.715 137.825 443.924 135.688 440.785 134.223C437.646 132.758 434.233 132 430.78 132H373" stroke="#59D279"/>
<g opacity="0.3" filter="url(#filter3_d_41_92)">
<path d="M355.188 158.375C369.651 158.375 381.375 146.651 381.375 132.188C381.375 117.725 369.651 106 355.188 106C340.725 106 329 117.725 329 132.188C329 146.651 340.725 158.375 355.188 158.375Z" fill="white"/>
</g>
<path d="M211 83L253.3 124.97C257.837 129.471 263.99 132 270.406 132H339" stroke="#59D279"/>
<path d="M120.447 1L145 25.5534L143.553 27L119 2.4466L120.447 1Z" stroke="#59D279"/>
<path d="M366.083 121.74H343.796C343.683 121.74 343.572 121.764 343.468 121.809C343.364 121.855 343.27 121.922 343.19 122.006C343.111 122.09 343.048 122.19 343.005 122.301C342.962 122.411 342.939 122.529 342.939 122.648V140.828C342.939 141.331 343.323 141.738 343.796 141.738H366.083C366.196 141.738 366.307 141.714 366.411 141.669C366.515 141.623 366.61 141.556 366.689 141.471C366.769 141.387 366.832 141.286 366.875 141.176C366.918 141.066 366.94 140.947 366.939 140.828V122.648C366.94 122.529 366.918 122.41 366.875 122.3C366.832 122.19 366.769 122.089 366.689 122.005C366.61 121.92 366.515 121.853 366.411 121.807C366.307 121.762 366.196 121.74 366.083 121.74ZM363.918 124.832L355.466 131.807C355.365 131.891 355.24 131.937 355.112 131.937C354.983 131.937 354.858 131.891 354.757 131.807L346.303 124.832C346.272 124.805 346.248 124.769 346.237 124.728C346.228 124.697 346.227 124.665 346.232 124.634C346.237 124.602 346.249 124.573 346.267 124.547C346.285 124.522 346.308 124.501 346.335 124.486C346.361 124.472 346.391 124.464 346.421 124.464H363.801C363.841 124.465 363.88 124.479 363.913 124.504C363.946 124.529 363.97 124.565 363.983 124.605C363.995 124.647 363.997 124.688 363.985 124.73C363.973 124.771 363.95 124.805 363.918 124.832Z" fill="#91FFAE"/>
<path d="M489 544L448.386 591.582C446.133 594.221 443.334 596.341 440.183 597.794C437.031 599.247 433.602 600 430.132 600H373" stroke="#59D279"/>
<g filter="url(#filter4_d_41_92)">
<path opacity="0.3" d="M386.248 625.985C400.711 625.985 412.436 614.26 412.436 599.797C412.436 585.334 400.711 573.61 386.248 573.61C371.785 573.61 360.061 585.334 360.061 599.797C360.061 614.26 371.785 625.985 386.248 625.985Z" fill="white"/>
</g>
<path d="M398 600C397.999 596.818 396.787 593.766 394.63 591.516C392.473 589.266 389.549 588.001 386.498 588C384.613 588.001 382.758 588.486 381.094 589.411C379.431 590.336 378.01 591.673 376.958 593.305C375.906 594.937 375.255 596.813 375.061 598.77C374.867 600.726 375.137 602.702 375.847 604.524L381.151 598.98C381.353 598.766 381.626 598.64 381.913 598.627C382.201 598.613 382.483 598.714 382.703 598.908L385.694 601.537L389.466 597.599H388.8C388.495 597.599 388.202 597.472 387.987 597.247C387.771 597.023 387.649 596.718 387.648 596.4C387.648 595.739 388.167 595.2 388.8 595.2H392.25C392.883 595.2 393.4 595.739 393.4 596.4V600C393.387 600.31 393.261 600.603 393.046 600.817C392.832 601.032 392.546 601.152 392.249 601.152C391.952 601.152 391.666 601.032 391.452 600.817C391.238 600.603 391.111 600.31 391.099 600V599.305L386.567 604.02C386.365 604.234 386.091 604.36 385.803 604.371C385.514 604.382 385.233 604.278 385.016 604.08L382.036 601.452L376.975 606.733C378.029 608.357 379.448 609.685 381.108 610.603C382.769 611.522 384.619 612.001 386.498 612H395.701C396.31 611.998 396.894 611.744 397.324 611.295C397.755 610.846 397.998 610.237 398 609.601V600ZM395.125 610.2C394.82 610.199 394.528 610.073 394.313 609.848C394.097 609.623 393.976 609.318 393.976 609C393.976 608.34 394.492 607.801 395.125 607.801C395.758 607.801 396.275 608.34 396.275 609C396.274 609.318 396.153 609.623 395.937 609.848C395.722 610.073 395.43 610.199 395.125 610.2Z" fill="#91FFAE"/>
<path d="M211 649L253.699 606.964C258.229 602.503 264.353 600 270.735 600H340" stroke="#59D279"/>
<path d="M675 302.674H743.327V300.663H675V302.674ZM861.894 184.011H884V182H861.894V184.011ZM803.615 242.337C803.615 210.125 829.708 184.011 861.894 184.011V182C828.597 182 801.606 209.013 801.606 242.337H803.615ZM743.327 302.674C776.624 302.674 803.615 275.661 803.615 242.337H801.606C801.606 274.549 775.513 300.663 743.327 300.663V302.674ZM675 361H884V358.989H675V361Z" fill="#91FFAE"/>
<path d="M675 417H743.327V419.017H675V417ZM861.894 535.983H884V538H861.894V535.983ZM803.615 477.5C803.615 509.799 829.708 535.983 861.894 535.983V538C828.597 538 801.606 510.914 801.606 477.5H803.615ZM743.327 417C776.624 417 803.615 444.086 803.615 477.5H801.606C801.606 445.201 775.513 419.017 743.327 419.017V417Z" fill="#91FFAE"/>
<path d="M519.201 178.875C619.053 178.875 700 259.822 700 359.674C699.999 459.526 619.053 540.473 519.201 540.473C419.348 540.473 338.402 459.526 338.402 359.674C338.402 259.822 419.348 178.875 519.201 178.875Z" fill="#91FFAE" fill-opacity="0.14" stroke="#91FFAE"/>
<path d="M496.756 417L512 408.574V357.327L510.096 356.774L468.443 346L463 350.006L506.829 361.333V405.535L501.928 408.437L501.383 365.062L496.212 368.931L496.756 417Z" fill="url(#paint2_linear_41_92)"/>
<path d="M482.144 360L477 364.531L496.573 370L502 365.624L482.144 360Z" fill="url(#paint3_linear_41_92)"/>
<path d="M451.019 363.485L457.378 359.58L465.571 361.673L471.223 357.627L456.811 354L440 365.718L485.633 377.156V425L491 421.931V373.11L451.019 363.485Z" fill="url(#paint4_linear_41_92)"/>
<path d="M519.5 318.731L476 307V312.648L519.5 324.379L557.785 314.096V319.745L545.024 323.222L548.317 328L563 324.09V307L519.5 318.731Z" fill="url(#paint5_linear_41_92)"/>
<path d="M519.5 340.511L481.215 330.522V324.894L519.5 335.024L536.928 330.383L533.77 325.739L528.557 327.146L519.5 329.537L476 318V334.602L519.5 346L563 334.602V329.115L519.5 340.511Z" fill="url(#paint6_linear_41_92)"/>
<path d="M536.278 408.452L531.277 405.557V361.439L576 349.996L570.446 346L527.943 356.889L526 357.441V408.59L541.555 417V391.494L536.278 388.876V408.452Z" fill="url(#paint7_linear_41_92)"/>
<path d="M581.503 354L537 365.46L542.544 369.514L580.947 359.589L587.187 363.364L547.953 373.008V421.925L553.22 425V377.2L598 365.599L581.503 354Z" fill="url(#paint8_linear_41_92)"/>
<path d="M537 376.089L541.876 379L542 369.02L537 365V376.089Z" fill="url(#paint9_linear_41_92)"/>
<path d="M148 566L190.3 524.03C192.547 521.801 195.213 520.033 198.148 518.827C201.083 517.62 204.229 517 207.406 517H276" stroke="#59D279"/>
<path d="M47.4338 669L93 622.464L91.5662 621L46 667.536L47.4338 669Z" fill="#3C82C3"/>
<path d="M47.4338 669L93 622.464L91.5662 621L46 667.536L47.4338 669Z" stroke="#59D279"/>
<g opacity="0.3" filter="url(#filter5_d_41_92)">
<path d="M156.603 480.946C171.066 480.946 182.791 469.222 182.791 454.759C182.791 440.296 171.066 428.571 156.603 428.571C142.14 428.571 130.416 440.296 130.416 454.759C130.416 469.222 142.14 480.946 156.603 480.946Z" fill="white"/>
</g>
<g opacity="0.3" filter="url(#filter6_d_41_92)">
<path d="M169.188 323.375C183.651 323.375 195.375 311.651 195.375 297.188C195.375 282.725 183.651 271 169.188 271C154.725 271 143 282.725 143 297.188C143 311.651 154.725 323.375 169.188 323.375Z" fill="white"/>
</g>
<path d="M174.084 293.028V303.765C174.084 304.239 173.908 304.694 173.595 305.03C173.283 305.365 172.859 305.554 172.418 305.555H160.752C160.204 305.555 159.662 305.44 159.157 305.216C158.651 304.991 158.191 304.662 157.804 304.246C157.417 303.831 157.11 303.338 156.901 302.794C156.691 302.251 156.584 301.669 156.584 301.082V290.344C156.585 289.869 156.761 289.414 157.074 289.079C157.387 288.743 157.811 288.555 158.253 288.555H169.917C171.022 288.555 172.081 289.026 172.863 289.865C173.644 290.703 174.084 291.841 174.084 293.028ZM181.167 290.915C181.041 290.833 180.897 290.79 180.75 290.79C180.603 290.79 180.459 290.833 180.333 290.915L176.168 293.465C176.039 293.543 175.933 293.657 175.859 293.794C175.786 293.932 175.748 294.088 175.751 294.246V299.863C175.75 300.021 175.789 300.176 175.862 300.313C175.935 300.45 176.041 300.564 176.168 300.644L180.333 303.194C180.459 303.274 180.604 303.316 180.75 303.316C180.897 303.316 181.041 303.274 181.167 303.194C181.295 303.118 181.401 303.006 181.475 302.871C181.548 302.735 181.586 302.58 181.584 302.423V291.686C181.585 291.529 181.547 291.374 181.473 291.239C181.4 291.103 181.295 290.991 181.167 290.915Z" fill="#91FFAE"/>
<path d="M150 165L192.3 207.827C194.547 210.101 197.213 211.905 200.148 213.136C203.083 214.367 206.229 215 209.406 215H278" stroke="#59D279"/>
<path d="M84 379H191V377H84V379Z" stroke="#59D279"/>
<path d="M146.002 464.159C146.002 464.624 146.378 465 146.843 465H166.155C166.378 465 166.592 464.911 166.75 464.754C166.908 464.596 166.996 464.382 166.996 464.159V453.135H146L146.002 464.159ZM166.157 445.891H161.748V444.211C161.748 444.156 161.726 444.102 161.687 444.063C161.648 444.023 161.595 444.001 161.539 444H160.068C160.013 444.001 159.96 444.023 159.92 444.063C159.881 444.102 159.859 444.156 159.859 444.211V445.891H153.141V444.211C153.141 444.183 153.135 444.156 153.125 444.13C153.114 444.105 153.099 444.081 153.079 444.062C153.059 444.042 153.036 444.027 153.01 444.016C152.985 444.005 152.957 444 152.93 444H151.461C151.433 444 151.406 444.005 151.38 444.016C151.355 444.027 151.331 444.042 151.312 444.062C151.292 444.081 151.277 444.105 151.266 444.13C151.255 444.156 151.25 444.183 151.25 444.211V445.891H146.845C146.734 445.891 146.625 445.912 146.523 445.954C146.421 445.996 146.328 446.058 146.25 446.136C146.172 446.214 146.11 446.307 146.068 446.409C146.026 446.511 146.004 446.62 146.004 446.73V451.349H167V446.73C167 446.62 166.978 446.511 166.936 446.409C166.894 446.307 166.832 446.214 166.754 446.136C166.676 446.058 166.583 445.996 166.481 445.954C166.379 445.912 166.268 445.891 166.157 445.891Z" fill="#91FFAE"/>
<g opacity="0.3" filter="url(#filter7_d_41_92)">
<path d="M116.315 619.941C130.778 619.941 142.502 608.217 142.502 593.754C142.502 579.291 130.778 567.566 116.315 567.566C101.852 567.566 90.127 579.291 90.127 593.754C90.127 608.217 101.852 619.941 116.315 619.941Z" fill="white"/>
</g>
<path d="M124.213 582.579L124.919 587.188L128.988 589.325L126.937 593.505L129 597.685L124.895 599.823L124.189 604.433L119.677 603.704L116.466 607L113.242 603.655L108.765 604.421L108.047 599.776L104 597.649L106.063 593.47L104.012 589.325L108.081 587.165L108.789 582.59L113.276 583.355L116.5 580L119.712 583.306L124.213 582.579ZM113.602 587.534C113.373 587.534 113.147 587.58 112.935 587.671C112.724 587.761 112.532 587.893 112.371 588.06C112.045 588.397 111.862 588.853 111.862 589.329C111.863 589.804 112.047 590.26 112.374 590.596C112.701 590.932 113.144 591.121 113.606 591.12C114.067 591.12 114.51 590.93 114.836 590.593C115.163 590.257 115.346 589.8 115.345 589.325C115.344 588.849 115.161 588.393 114.834 588.057C114.507 587.721 114.063 587.533 113.602 587.534ZM119.398 595.894C118.937 595.894 118.495 596.083 118.168 596.419C117.842 596.755 117.659 597.21 117.659 597.685C117.659 598.16 117.842 598.616 118.168 598.952C118.495 599.288 118.937 599.477 119.398 599.477C119.86 599.477 120.302 599.288 120.628 598.952C120.955 598.616 121.138 598.16 121.138 597.685C121.138 597.21 120.955 596.755 120.628 596.419C120.302 596.083 119.86 595.894 119.398 595.894ZM112.337 599.477L122.297 589.218L120.663 587.534L110.703 597.792L112.337 599.477Z" fill="#91FFAE"/>
<g opacity="0.3" filter="url(#filter8_d_41_92)">
<path d="M178.762 80.0744C193.225 80.0744 204.949 68.3498 204.949 53.8868C204.949 39.4238 193.225 27.6992 178.762 27.6992C164.299 27.6992 152.574 39.4238 152.574 53.8868C152.574 68.3498 164.299 80.0744 178.762 80.0744Z" fill="white"/>
</g>
<path d="M192.43 46.986C192.271 46.4129 191.96 45.8901 191.527 45.4697C191.095 45.0494 190.557 44.7461 189.966 44.5901C187.774 44.0079 179.01 44 179.01 44C179.01 44 170.248 43.9882 168.054 44.5469C167.464 44.71 166.927 45.0175 166.494 45.4398C166.062 45.8621 165.748 46.3851 165.584 46.9585C165.006 49.0829 165 53.4853 165 53.4853C165 53.4853 164.996 57.9112 165.568 60.014C165.891 61.1745 166.834 62.0951 168.036 62.4079C170.248 62.9902 178.99 63 178.99 63C178.99 63 187.754 63.0098 189.944 62.4531C190.534 62.2973 191.073 61.9949 191.506 61.5758C191.94 61.1567 192.253 60.6354 192.415 60.0631C192.996 57.9387 193 53.5364 193 53.5364C193 53.5364 193.026 49.1105 192.43 46.986ZM176.206 57.5669L176.214 49.4291L183.499 53.5049L176.206 57.5669Z" fill="#91FFAE"/>
<path d="M123 732.607L147.551 709L149 710.393L124.449 734L123 732.607Z" stroke="#59D279"/>
<g filter="url(#filter9_d_41_92)">
<path opacity="0.3" d="M178.762 702.533C193.225 702.533 204.949 690.809 204.949 676.346C204.949 661.883 193.225 650.158 178.762 650.158C164.299 650.158 152.574 661.883 152.574 676.346C152.574 690.809 164.299 702.533 178.762 702.533Z" fill="white"/>
</g>
<path d="M188.601 669.359H181.897L184.649 666.661L182.952 665L179 668.873L175.05 665L173.351 666.661L176.103 669.359H169.399C168.076 669.359 167 670.413 167 671.712V684.647C167 685.946 168.076 687 169.399 687H188.601C189.924 687 191 685.946 191 684.647V671.712C191 670.413 189.924 669.359 188.601 669.359Z" fill="#91FFAE"/>
<g opacity="0.3" filter="url(#filter10_d_41_92)">
<path d="M37.7517 402.383C52.2147 402.383 63.9393 390.658 63.9393 376.195C63.9393 361.732 52.2147 350.008 37.7517 350.008C23.2887 350.008 11.5641 361.732 11.5641 376.195C11.5641 390.658 23.2887 402.383 37.7517 402.383Z" fill="white"/>
</g>
<mask id="mask0_41_92" style="mask-type:luminance" maskUnits="userSpaceOnUse" x="23" y="362" width="29" height="29">
<path d="M23.6507 362.095H51.8527V390.297H23.6507V362.095Z" fill="white"/>
</mask>
<g mask="url(#mask0_41_92)">
<path d="M35.4069 368.457C35.8684 367.972 36.4238 367.586 37.0392 367.322C37.6546 367.059 38.3171 366.923 38.9866 366.924C40.8197 366.924 42.4574 367.983 43.3216 369.518C44.065 369.164 44.909 368.984 45.7893 368.984C49.1413 368.984 51.8527 371.734 51.8527 375.122C51.8527 378.507 49.1373 381.254 45.7712 381.254C45.3694 381.251 44.9688 381.209 44.5746 381.131C44.1946 381.828 43.6335 382.409 42.9505 382.813C42.2676 383.216 41.4882 383.428 40.6948 383.426C40.0255 383.418 39.3655 383.268 38.759 382.985C38.3586 383.918 37.688 384.71 36.8334 385.258C35.9789 385.807 34.9796 386.087 33.9645 386.062C32.9493 386.037 31.9649 385.709 31.138 385.12C30.3111 384.53 29.6798 383.707 29.3254 382.755C29.0071 382.819 28.6808 382.85 28.3584 382.844C25.7679 382.844 23.6507 380.726 23.6507 378.083C23.6507 376.321 24.6015 374.786 26.0116 373.962C25.7085 373.278 25.552 372.538 25.5523 371.79C25.5539 370.342 26.1303 368.953 27.1549 367.928C28.1796 366.904 29.5687 366.328 31.0175 366.327C32.8184 366.327 34.3655 367.153 35.3888 368.442L35.4069 368.457Z" fill="#91FFAE"/>
</g>
<path opacity="0.1" d="M888 203C899.046 203 908 193.822 908 182.5C908 171.178 899.046 162 888 162C876.954 162 868 171.178 868 182.5C868 193.822 876.954 203 888 203Z" fill="url(#paint10_linear_41_92)"/>
<path d="M888 189C891.314 189 894 186.538 894 183.5C894 180.462 891.314 178 888 178C884.686 178 882 180.462 882 183.5C882 186.538 884.686 189 888 189Z" fill="black"/>
<path opacity="0.1" d="M888 380C899.046 380 908 370.822 908 359.5C908 348.178 899.046 339 888 339C876.954 339 868 348.178 868 359.5C868 370.822 876.954 380 888 380Z" fill="url(#paint11_linear_41_92)"/>
<path d="M888 366C891.314 366 894 363.538 894 360.5C894 357.462 891.314 355 888 355C884.686 355 882 357.462 882 360.5C882 363.538 884.686 366 888 366Z" fill="black"/>
<path opacity="0.1" d="M888 556C899.046 556 908 546.822 908 535.5C908 524.178 899.046 515 888 515C876.954 515 868 524.178 868 535.5C868 546.822 876.954 556 888 556Z" fill="url(#paint12_linear_41_92)"/>
<path d="M888 542C891.314 542 894 539.538 894 536.5C894 533.462 891.314 531 888 531C884.686 531 882 533.462 882 536.5C882 539.538 884.686 542 888 542Z" fill="black"/>
<path d="M939.064 193.384C937.571 193.384 936.131 193.117 934.744 192.584C933.379 192.051 932.163 191.283 931.096 190.28C930.029 189.277 929.187 188.061 928.568 186.632C927.949 185.203 927.64 183.592 927.64 181.8C927.64 180.008 927.949 178.397 928.568 176.968C929.187 175.539 930.029 174.323 931.096 173.32C932.163 172.317 933.379 171.549 934.744 171.016C936.131 170.483 937.571 170.216 939.064 170.216C940.579 170.216 942.019 170.483 943.384 171.016C944.771 171.549 945.997 172.317 947.064 173.32C948.131 174.323 948.973 175.539 949.592 176.968C950.211 178.397 950.52 180.008 950.52 181.8C950.52 183.592 950.211 185.203 949.592 186.632C948.973 188.061 948.131 189.277 947.064 190.28C945.997 191.283 944.771 192.051 943.384 192.584C942.019 193.117 940.579 193.384 939.064 193.384ZM939.064 189.672C940.259 189.672 941.411 189.395 942.52 188.84C943.629 188.264 944.536 187.389 945.24 186.216C945.944 185.043 946.296 183.571 946.296 181.8C946.296 180.008 945.944 178.525 945.24 177.352C944.536 176.179 943.629 175.315 942.52 174.76C941.411 174.184 940.259 173.896 939.064 173.896C937.891 173.896 936.749 174.184 935.64 174.76C934.531 175.315 933.624 176.179 932.92 177.352C932.216 178.525 931.864 180.008 931.864 181.8C931.864 183.571 932.216 185.043 932.92 186.216C933.624 187.389 934.531 188.264 935.64 188.84C936.749 189.395 937.891 189.672 939.064 189.672ZM953.268 193V177.128H957.332V178.952C957.865 178.205 958.548 177.651 959.38 177.288C960.212 176.925 961.087 176.744 962.004 176.744C963.199 176.744 964.308 177 965.332 177.512C966.377 178.003 967.188 178.781 967.764 179.848C968.297 178.867 969.033 178.109 969.972 177.576C970.932 177.021 971.977 176.744 973.108 176.744C974.324 176.744 975.423 177 976.404 177.512C977.407 178.003 978.196 178.76 978.772 179.784C979.348 180.808 979.636 182.088 979.636 183.624V193H975.572V184.2C975.572 183.005 975.284 182.056 974.708 181.352C974.132 180.648 973.247 180.296 972.052 180.296C970.879 180.296 969.993 180.648 969.396 181.352C968.799 182.056 968.5 183.005 968.5 184.2V193H964.436V184.2C964.436 182.984 964.127 182.035 963.508 181.352C962.911 180.648 962.047 180.296 960.916 180.296C959.956 180.296 959.113 180.605 958.388 181.224C957.684 181.821 957.332 182.813 957.332 184.2V193H953.268ZM982.268 193V177.128H986.332V178.984C986.887 178.237 987.623 177.683 988.54 177.32C989.479 176.936 990.417 176.744 991.356 176.744C993.191 176.744 994.695 177.341 995.868 178.536C997.041 179.709 997.628 181.416 997.628 183.656V193H993.564V184.2C993.564 183.005 993.255 182.045 992.636 181.32C992.039 180.573 991.153 180.2 989.98 180.2C988.807 180.2 987.9 180.573 987.26 181.32C986.641 182.045 986.332 183.005 986.332 184.2V193H982.268ZM1002.44 175.08C1001.72 175.08 1001.09 174.824 1000.56 174.312C1000.04 173.779 999.789 173.149 999.789 172.424C999.789 171.677 1000.04 171.048 1000.56 170.536C1001.09 170.024 1001.72 169.768 1002.44 169.768C1003.19 169.768 1003.82 170.024 1004.33 170.536C1004.84 171.048 1005.1 171.677 1005.1 172.424C1005.1 173.149 1004.84 173.779 1004.33 174.312C1003.82 174.824 1003.19 175.08 1002.44 175.08ZM1000.4 193V177.128H1004.49V193H1000.4ZM1014.94 193.384C1013.34 193.384 1011.95 193.032 1010.75 192.328C1009.56 191.603 1008.63 190.621 1007.97 189.384C1007.31 188.125 1006.97 186.685 1006.97 185.064C1006.97 183.464 1007.29 182.035 1007.93 180.776C1008.6 179.517 1009.52 178.536 1010.72 177.832C1011.91 177.107 1013.32 176.744 1014.94 176.744C1016.86 176.744 1018.48 177.224 1019.81 178.184C1021.15 179.144 1022.06 180.563 1022.53 182.44H1018.14C1017.95 181.821 1017.58 181.299 1017.02 180.872C1016.49 180.424 1015.79 180.2 1014.91 180.2C1014.04 180.2 1013.32 180.424 1012.77 180.872C1012.21 181.32 1011.8 181.917 1011.52 182.664C1011.26 183.389 1011.13 184.189 1011.13 185.064C1011.13 185.939 1011.26 186.749 1011.52 187.496C1011.8 188.221 1012.21 188.808 1012.77 189.256C1013.32 189.683 1014.04 189.896 1014.91 189.896C1015.74 189.896 1016.43 189.715 1016.96 189.352C1017.49 188.968 1017.89 188.413 1018.14 187.688H1022.53C1022.25 188.883 1021.75 189.907 1021.02 190.76C1020.32 191.613 1019.44 192.264 1018.4 192.712C1017.37 193.16 1016.22 193.384 1014.94 193.384ZM1024.89 193V170.6H1028.96V178.984C1029.51 178.237 1030.25 177.683 1031.17 177.32C1032.1 176.936 1033.04 176.744 1033.98 176.744C1035.82 176.744 1037.32 177.341 1038.49 178.536C1039.67 179.709 1040.25 181.416 1040.25 183.656V193H1036.19V184.2C1036.19 183.005 1035.88 182.045 1035.26 181.32C1034.66 180.573 1033.78 180.2 1032.61 180.2C1031.43 180.2 1030.53 180.573 1029.89 181.32C1029.27 182.045 1028.96 183.005 1028.96 184.2V193H1024.89ZM1047.73 193.384C1046.79 193.384 1045.91 193.192 1045.1 192.808C1044.29 192.424 1043.63 191.88 1043.12 191.176C1042.63 190.451 1042.38 189.597 1042.38 188.616C1042.38 187.443 1042.67 186.483 1043.25 185.736C1043.82 184.989 1044.61 184.435 1045.61 184.072C1046.64 183.709 1047.78 183.528 1049.04 183.528H1052.81C1052.81 182.803 1052.7 182.195 1052.46 181.704C1052.25 181.213 1051.92 180.84 1051.47 180.584C1051.04 180.307 1050.51 180.168 1049.87 180.168C1049.12 180.168 1048.45 180.339 1047.85 180.68C1047.28 181 1046.93 181.544 1046.8 182.312H1042.7C1042.81 181.16 1043.2 180.168 1043.89 179.336C1044.57 178.504 1045.44 177.864 1046.51 177.416C1047.58 176.968 1048.72 176.744 1049.93 176.744C1051.43 176.744 1052.69 177.021 1053.71 177.576C1054.76 178.131 1055.56 178.92 1056.11 179.944C1056.66 180.947 1056.94 182.141 1056.94 183.528V188.36C1056.98 188.829 1057.16 189.149 1057.45 189.32C1057.75 189.491 1058.15 189.576 1058.64 189.576V193C1057.64 193 1056.79 192.904 1056.11 192.712C1055.45 192.52 1054.9 192.243 1054.48 191.88C1054.05 191.496 1053.69 191.016 1053.39 190.44C1052.9 191.272 1052.13 191.976 1051.09 192.552C1050.06 193.107 1048.94 193.384 1047.73 193.384ZM1048.91 190.088C1049.61 190.088 1050.25 189.928 1050.83 189.608C1051.43 189.288 1051.91 188.84 1052.27 188.264C1052.63 187.688 1052.81 187.027 1052.81 186.28V186.152H1049.29C1048.82 186.152 1048.38 186.227 1047.95 186.376C1047.52 186.504 1047.18 186.717 1046.93 187.016C1046.67 187.293 1046.54 187.677 1046.54 188.168C1046.54 188.829 1046.77 189.32 1047.21 189.64C1047.68 189.939 1048.25 190.088 1048.91 190.088ZM1060.61 193V177.128H1064.68V178.984C1065.23 178.237 1065.97 177.683 1066.88 177.32C1067.82 176.936 1068.76 176.744 1069.7 176.744C1071.53 176.744 1073.04 177.341 1074.21 178.536C1075.39 179.709 1075.97 181.416 1075.97 183.656V193H1071.91V184.2C1071.91 183.005 1071.6 182.045 1070.98 181.32C1070.38 180.573 1069.5 180.2 1068.32 180.2C1067.15 180.2 1066.24 180.573 1065.6 181.32C1064.99 182.045 1064.68 183.005 1064.68 184.2V193H1060.61ZM1078.58 193V177.128H1082.64V178.984C1083.2 178.237 1083.94 177.683 1084.85 177.32C1085.79 176.936 1086.73 176.744 1087.67 176.744C1089.5 176.744 1091.01 177.341 1092.18 178.536C1093.35 179.709 1093.94 181.416 1093.94 183.656V193H1089.88V184.2C1089.88 183.005 1089.57 182.045 1088.95 181.32C1088.35 180.573 1087.47 180.2 1086.29 180.2C1085.12 180.2 1084.21 180.573 1083.57 181.32C1082.95 182.045 1082.64 183.005 1082.64 184.2V193H1078.58ZM1104.13 193.384C1102.47 193.384 1101.03 193.021 1099.81 192.296C1098.62 191.571 1097.69 190.579 1097.03 189.32C1096.37 188.061 1096.04 186.643 1096.04 185.064C1096.04 183.379 1096.38 181.917 1097.06 180.68C1097.74 179.443 1098.69 178.483 1099.91 177.8C1101.13 177.096 1102.53 176.744 1104.13 176.744C1105.71 176.744 1107.09 177.085 1108.26 177.768C1109.46 178.451 1110.38 179.389 1111.05 180.584C1111.73 181.779 1112.07 183.155 1112.07 184.712C1112.07 184.989 1112.06 185.267 1112.04 185.544C1112.02 185.8 1111.98 186.045 1111.94 186.28H1100.17C1100.23 187.027 1100.42 187.688 1100.74 188.264C1101.08 188.819 1101.53 189.256 1102.09 189.576C1102.66 189.875 1103.31 190.024 1104.04 190.024C1104.78 190.024 1105.42 189.864 1105.96 189.544C1106.51 189.224 1106.95 188.733 1107.27 188.072H1111.65C1111.35 189.011 1110.87 189.885 1110.21 190.696C1109.55 191.507 1108.71 192.157 1107.69 192.648C1106.68 193.139 1105.5 193.384 1104.13 193.384ZM1100.2 183.56H1107.85C1107.82 182.493 1107.43 181.651 1106.66 181.032C1105.91 180.413 1105.03 180.104 1104.01 180.104C1103.13 180.104 1102.32 180.381 1101.57 180.936C1100.83 181.469 1100.37 182.344 1100.2 183.56ZM1114.24 193V170.6H1118.33V193H1114.24ZM1129.22 193V170.6H1136.87C1139.53 170.6 1141.71 171.069 1143.4 172.008C1145.1 172.947 1146.35 174.259 1147.14 175.944C1147.95 177.629 1148.36 179.581 1148.36 181.8C1148.36 184.189 1147.91 186.227 1147.01 187.912C1146.14 189.576 1144.85 190.845 1143.14 191.72C1141.43 192.573 1139.34 193 1136.87 193H1129.22ZM1133.32 189.48H1136.68C1138.57 189.48 1140.07 189.171 1141.16 188.552C1142.24 187.933 1143.01 187.048 1143.46 185.896C1143.93 184.744 1144.16 183.379 1144.16 181.8C1144.16 179.133 1143.55 177.181 1142.31 175.944C1141.09 174.707 1139.21 174.088 1136.68 174.088H1133.32V189.48ZM1159.37 193.384C1157.81 193.384 1156.39 193.117 1155.11 192.584C1153.85 192.051 1152.85 191.261 1152.1 190.216C1151.36 189.149 1150.96 187.827 1150.92 186.248H1155.24C1155.28 187.293 1155.66 188.168 1156.36 188.872C1157.09 189.576 1158.08 189.928 1159.34 189.928C1160.42 189.928 1161.29 189.672 1161.93 189.16C1162.57 188.648 1162.89 187.955 1162.89 187.08C1162.89 186.632 1162.81 186.237 1162.66 185.896C1162.54 185.555 1162.28 185.235 1161.9 184.936C1161.51 184.637 1160.97 184.349 1160.26 184.072C1159.58 183.773 1158.67 183.443 1157.54 183.08C1156.07 182.589 1154.89 182.024 1153.99 181.384C1153.1 180.744 1152.45 180.029 1152.04 179.24C1151.66 178.429 1151.46 177.555 1151.46 176.616C1151.46 175.208 1151.79 174.035 1152.46 173.096C1153.14 172.136 1154.05 171.421 1155.18 170.952C1156.33 170.461 1157.6 170.216 1158.98 170.216C1160.39 170.216 1161.66 170.461 1162.79 170.952C1163.94 171.443 1164.87 172.168 1165.58 173.128C1166.28 174.088 1166.64 175.272 1166.66 176.68H1162.28C1162.26 175.869 1161.94 175.165 1161.32 174.568C1160.72 173.971 1159.89 173.672 1158.82 173.672C1157.97 173.672 1157.25 173.896 1156.65 174.344C1156.05 174.792 1155.75 175.453 1155.75 176.328C1155.75 176.968 1155.99 177.512 1156.46 177.96C1156.95 178.408 1157.6 178.803 1158.41 179.144C1159.24 179.464 1160.16 179.805 1161.16 180.168C1161.71 180.36 1162.33 180.605 1163.02 180.904C1163.72 181.203 1164.39 181.608 1165.03 182.12C1165.67 182.611 1166.19 183.24 1166.6 184.008C1167.03 184.755 1167.24 185.683 1167.24 186.792C1167.24 188.157 1166.89 189.331 1166.18 190.312C1165.5 191.293 1164.56 192.051 1163.37 192.584C1162.19 193.117 1160.86 193.384 1159.37 193.384ZM1176.34 193L1184.53 170.6H1189.14L1197.33 193H1192.98L1191.22 187.912H1182.42L1180.63 193H1176.34ZM1183.57 184.616H1190.07L1186.81 175.304L1183.57 184.616ZM1205.84 200.424C1204.39 200.424 1203.09 200.264 1201.93 199.944C1200.78 199.624 1199.87 199.101 1199.18 198.376C1198.52 197.672 1198.19 196.744 1198.19 195.592C1198.19 194.845 1198.35 194.195 1198.67 193.64C1198.99 193.107 1199.48 192.637 1200.14 192.232C1199.59 191.912 1199.17 191.507 1198.89 191.016C1198.62 190.525 1198.48 189.96 1198.48 189.32C1198.48 187.912 1199.14 186.824 1200.46 186.056C1199.99 185.565 1199.63 185.011 1199.37 184.392C1199.12 183.752 1198.99 183.091 1198.99 182.408C1198.99 181.256 1199.27 180.264 1199.82 179.432C1200.38 178.579 1201.15 177.917 1202.13 177.448C1203.11 176.979 1204.23 176.744 1205.49 176.744C1206.4 176.744 1207.25 176.872 1208.01 177.128H1213.71V180.2H1211.5C1211.63 180.563 1211.74 180.925 1211.82 181.288C1211.93 181.651 1211.98 182.024 1211.98 182.408C1211.98 183.517 1211.69 184.499 1211.12 185.352C1210.54 186.205 1209.76 186.877 1208.78 187.368C1207.82 187.837 1206.72 188.072 1205.49 188.072C1204.95 188.072 1204.46 188.029 1204.01 187.944C1203.57 187.837 1203.13 187.677 1202.7 187.464C1202.23 187.699 1202 188.072 1202 188.584C1202 189.523 1202.78 189.992 1204.33 189.992H1207.25C1208.53 189.992 1209.61 190.173 1210.51 190.536C1211.43 190.877 1212.12 191.421 1212.59 192.168C1213.06 192.915 1213.29 193.864 1213.29 195.016C1213.29 196.125 1212.96 197.085 1212.3 197.896C1211.64 198.707 1210.75 199.325 1209.61 199.752C1208.48 200.2 1207.23 200.424 1205.84 200.424ZM1205.84 197.224C1206.86 197.224 1207.73 197.053 1208.43 196.712C1209.16 196.392 1209.52 195.901 1209.52 195.24C1209.52 193.981 1208.64 193.352 1206.89 193.352H1204.59C1203.74 193.352 1203.08 193.512 1202.61 193.832C1202.16 194.152 1201.93 194.621 1201.93 195.24C1201.93 195.731 1202.12 196.115 1202.48 196.392C1202.84 196.691 1203.32 196.904 1203.92 197.032C1204.52 197.16 1205.16 197.224 1205.84 197.224ZM1205.45 184.872C1206.27 184.872 1206.93 184.648 1207.44 184.2C1207.97 183.731 1208.24 183.133 1208.24 182.408C1208.24 181.704 1207.97 181.117 1207.44 180.648C1206.93 180.179 1206.27 179.944 1205.45 179.944C1204.64 179.944 1203.98 180.179 1203.47 180.648C1202.98 181.117 1202.73 181.704 1202.73 182.408C1202.73 183.133 1202.97 183.731 1203.44 184.2C1203.93 184.648 1204.6 184.872 1205.45 184.872ZM1222.82 193.384C1221.16 193.384 1219.72 193.021 1218.5 192.296C1217.31 191.571 1216.38 190.579 1215.72 189.32C1215.06 188.061 1214.72 186.643 1214.72 185.064C1214.72 183.379 1215.07 181.917 1215.75 180.68C1216.43 179.443 1217.38 178.483 1218.6 177.8C1219.81 177.096 1221.22 176.744 1222.82 176.744C1224.4 176.744 1225.78 177.085 1226.95 177.768C1228.14 178.451 1229.07 179.389 1229.73 180.584C1230.42 181.779 1230.76 183.155 1230.76 184.712C1230.76 184.989 1230.75 185.267 1230.72 185.544C1230.7 185.8 1230.67 186.045 1230.63 186.28H1218.85C1218.92 187.027 1219.11 187.688 1219.43 188.264C1219.77 188.819 1220.22 189.256 1220.77 189.576C1221.35 189.875 1222 190.024 1222.72 190.024C1223.47 190.024 1224.11 189.864 1224.64 189.544C1225.2 189.224 1225.64 188.733 1225.96 188.072H1230.34C1230.04 189.011 1229.56 189.885 1228.9 190.696C1228.24 191.507 1227.4 192.157 1226.37 192.648C1225.37 193.139 1224.19 193.384 1222.82 193.384ZM1218.88 183.56H1226.53C1226.51 182.493 1226.12 181.651 1225.35 181.032C1224.6 180.413 1223.72 180.104 1222.69 180.104C1221.82 180.104 1221.01 180.381 1220.26 180.936C1219.51 181.469 1219.06 182.344 1218.88 183.56ZM1232.92 193V177.128H1236.99V178.984C1237.54 178.237 1238.28 177.683 1239.2 177.32C1240.14 176.936 1241.07 176.744 1242.01 176.744C1243.85 176.744 1245.35 177.341 1246.52 178.536C1247.7 179.709 1248.28 181.416 1248.28 183.656V193H1244.22V184.2C1244.22 183.005 1243.91 182.045 1243.29 181.32C1242.7 180.573 1241.81 180.2 1240.64 180.2C1239.46 180.2 1238.56 180.573 1237.92 181.32C1237.3 182.045 1236.99 183.005 1236.99 184.2V193H1232.92ZM1257.13 193C1255.43 193 1254.14 192.584 1253.26 191.752C1252.41 190.92 1251.98 189.672 1251.98 188.008V180.552H1249.93V177.128H1251.98V173.256H1256.08V177.128H1259.69V180.552H1256.08V188.04C1256.08 188.637 1256.24 189.043 1256.56 189.256C1256.88 189.469 1257.29 189.576 1257.81 189.576H1259.69V193H1257.13Z" fill="white"/>
<path d="M938.118 370.384C936.561 370.384 935.142 370.117 933.862 369.584C932.603 369.051 931.601 368.261 930.854 367.216C930.107 366.149 929.713 364.827 929.67 363.248H933.99C934.033 364.293 934.406 365.168 935.11 365.872C935.835 366.576 936.827 366.928 938.086 366.928C939.174 366.928 940.038 366.672 940.678 366.16C941.318 365.648 941.638 364.955 941.638 364.08C941.638 363.632 941.563 363.237 941.414 362.896C941.286 362.555 941.03 362.235 940.646 361.936C940.262 361.637 939.718 361.349 939.014 361.072C938.331 360.773 937.425 360.443 936.294 360.08C934.822 359.589 933.638 359.024 932.742 358.384C931.846 357.744 931.195 357.029 930.79 356.24C930.406 355.429 930.214 354.555 930.214 353.616C930.214 352.208 930.545 351.035 931.206 350.096C931.889 349.136 932.795 348.421 933.926 347.952C935.078 347.461 936.347 347.216 937.734 347.216C939.142 347.216 940.411 347.461 941.542 347.952C942.694 348.443 943.622 349.168 944.326 350.128C945.03 351.088 945.393 352.272 945.414 353.68H941.03C941.009 352.869 940.689 352.165 940.07 351.568C939.473 350.971 938.641 350.672 937.574 350.672C936.721 350.672 935.995 350.896 935.398 351.344C934.801 351.792 934.502 352.453 934.502 353.328C934.502 353.968 934.737 354.512 935.206 354.96C935.697 355.408 936.347 355.803 937.158 356.144C937.99 356.464 938.907 356.805 939.91 357.168C940.465 357.36 941.083 357.605 941.766 357.904C942.47 358.203 943.142 358.608 943.782 359.12C944.422 359.611 944.945 360.24 945.35 361.008C945.777 361.755 945.99 362.683 945.99 363.792C945.99 365.157 945.638 366.331 944.934 367.312C944.251 368.293 943.313 369.051 942.118 369.584C940.945 370.117 939.611 370.384 938.118 370.384ZM955.849 370.384C954.249 370.384 952.852 370.032 951.657 369.328C950.462 368.603 949.534 367.621 948.873 366.384C948.212 365.125 947.881 363.685 947.881 362.064C947.881 360.464 948.201 359.035 948.841 357.776C949.502 356.517 950.43 355.536 951.625 354.832C952.82 354.107 954.228 353.744 955.849 353.744C957.769 353.744 959.39 354.224 960.713 355.184C962.057 356.144 962.964 357.563 963.433 359.44H959.049C958.857 358.821 958.484 358.299 957.929 357.872C957.396 357.424 956.692 357.2 955.817 357.2C954.942 357.2 954.228 357.424 953.673 357.872C953.118 358.32 952.702 358.917 952.425 359.664C952.169 360.389 952.041 361.189 952.041 362.064C952.041 362.939 952.169 363.749 952.425 364.496C952.702 365.221 953.118 365.808 953.673 366.256C954.228 366.683 954.942 366.896 955.817 366.896C956.649 366.896 957.332 366.715 957.865 366.352C958.398 365.968 958.793 365.413 959.049 364.688H963.433C963.156 365.883 962.654 366.907 961.929 367.76C961.225 368.613 960.35 369.264 959.305 369.712C958.281 370.16 957.129 370.384 955.849 370.384ZM973.383 370.384C971.719 370.384 970.279 370.021 969.063 369.296C967.869 368.571 966.941 367.579 966.279 366.32C965.618 365.061 965.287 363.643 965.287 362.064C965.287 360.379 965.629 358.917 966.311 357.68C966.994 356.443 967.943 355.483 969.159 354.8C970.375 354.096 971.783 353.744 973.383 353.744C974.962 353.744 976.338 354.085 977.511 354.768C978.706 355.451 979.634 356.389 980.295 357.584C980.978 358.779 981.319 360.155 981.319 361.712C981.319 361.989 981.309 362.267 981.287 362.544C981.266 362.8 981.234 363.045 981.191 363.28H969.415C969.479 364.027 969.671 364.688 969.991 365.264C970.333 365.819 970.781 366.256 971.335 366.576C971.911 366.875 972.562 367.024 973.287 367.024C974.034 367.024 974.674 366.864 975.207 366.544C975.762 366.224 976.199 365.733 976.519 365.072H980.903C980.605 366.011 980.125 366.885 979.463 367.696C978.802 368.507 977.959 369.157 976.935 369.648C975.933 370.139 974.749 370.384 973.383 370.384ZM969.447 360.56H977.095C977.074 359.493 976.679 358.651 975.911 358.032C975.165 357.413 974.279 357.104 973.255 357.104C972.381 357.104 971.57 357.381 970.823 357.936C970.077 358.469 969.618 359.344 969.447 360.56ZM983.487 370V354.128H987.551V355.984C988.106 355.237 988.842 354.683 989.759 354.32C990.698 353.936 991.636 353.744 992.575 353.744C994.41 353.744 995.914 354.341 997.087 355.536C998.26 356.709 998.847 358.416 998.847 360.656V370H994.783V361.2C994.783 360.005 994.474 359.045 993.855 358.32C993.258 357.573 992.372 357.2 991.199 357.2C990.026 357.2 989.119 357.573 988.479 358.32C987.86 359.045 987.551 360.005 987.551 361.2V370H983.487ZM1006.32 370.384C1005.38 370.384 1004.51 370.192 1003.7 369.808C1002.88 369.424 1002.22 368.88 1001.71 368.176C1001.22 367.451 1000.98 366.597 1000.98 365.616C1000.98 364.443 1001.26 363.483 1001.84 362.736C1002.42 361.989 1003.2 361.435 1004.21 361.072C1005.23 360.709 1006.37 360.528 1007.63 360.528H1011.41C1011.41 359.803 1011.29 359.195 1011.06 358.704C1010.84 358.213 1010.51 357.84 1010.06 357.584C1009.64 357.307 1009.1 357.168 1008.46 357.168C1007.72 357.168 1007.04 357.339 1006.45 357.68C1005.87 358 1005.52 358.544 1005.39 359.312H1001.3C1001.4 358.16 1001.8 357.168 1002.48 356.336C1003.16 355.504 1004.04 354.864 1005.1 354.416C1006.17 353.968 1007.31 353.744 1008.53 353.744C1010.02 353.744 1011.28 354.021 1012.3 354.576C1013.35 355.131 1014.15 355.92 1014.7 356.944C1015.26 357.947 1015.54 359.141 1015.54 360.528V365.36C1015.58 365.829 1015.75 366.149 1016.05 366.32C1016.35 366.491 1016.74 366.576 1017.23 366.576V370C1016.23 370 1015.39 369.904 1014.7 369.712C1014.04 369.52 1013.5 369.243 1013.07 368.88C1012.64 368.496 1012.28 368.016 1011.98 367.44C1011.49 368.272 1010.72 368.976 1009.68 369.552C1008.66 370.107 1007.54 370.384 1006.32 370.384ZM1007.5 367.088C1008.21 367.088 1008.85 366.928 1009.42 366.608C1010.02 366.288 1010.5 365.84 1010.86 365.264C1011.23 364.688 1011.41 364.027 1011.41 363.28V363.152H1007.89C1007.42 363.152 1006.97 363.227 1006.54 363.376C1006.12 363.504 1005.78 363.717 1005.52 364.016C1005.26 364.293 1005.14 364.677 1005.14 365.168C1005.14 365.829 1005.36 366.32 1005.81 366.64C1006.28 366.939 1006.84 367.088 1007.5 367.088ZM1019.21 370V354.128H1023.27V356.496C1023.82 355.6 1024.53 354.917 1025.38 354.448C1026.23 353.979 1027.18 353.744 1028.23 353.744V358.032H1027.14C1025.84 358.032 1024.87 358.341 1024.23 358.96C1023.59 359.579 1023.27 360.613 1023.27 362.064V370H1019.21ZM1032.35 352.08C1031.63 352.08 1031 351.824 1030.46 351.312C1029.95 350.779 1029.7 350.149 1029.7 349.424C1029.7 348.677 1029.95 348.048 1030.46 347.536C1031 347.024 1031.63 346.768 1032.35 346.768C1033.1 346.768 1033.73 347.024 1034.24 347.536C1034.75 348.048 1035.01 348.677 1035.01 349.424C1035.01 350.149 1034.75 350.779 1034.24 351.312C1033.73 351.824 1033.1 352.08 1032.35 352.08ZM1030.3 370V354.128H1034.4V370H1030.3ZM1045.14 370.384C1043.54 370.384 1042.11 370.043 1040.85 369.36C1039.61 368.656 1038.64 367.675 1037.94 366.416C1037.23 365.157 1036.88 363.707 1036.88 362.064C1036.88 360.336 1037.25 358.853 1038 357.616C1038.77 356.357 1039.78 355.397 1041.04 354.736C1042.32 354.075 1043.73 353.744 1045.27 353.744C1046.87 353.744 1048.29 354.096 1049.55 354.8C1050.81 355.483 1051.8 356.443 1052.53 357.68C1053.28 358.917 1053.65 360.379 1053.65 362.064C1053.65 363.664 1053.29 365.093 1052.56 366.352C1051.84 367.611 1050.83 368.603 1049.55 369.328C1048.29 370.032 1046.82 370.384 1045.14 370.384ZM1045.2 366.832C1046.05 366.832 1046.79 366.619 1047.41 366.192C1048.05 365.744 1048.55 365.157 1048.91 364.432C1049.28 363.685 1049.46 362.875 1049.46 362C1049.46 360.997 1049.25 360.144 1048.85 359.44C1048.47 358.736 1047.95 358.203 1047.31 357.84C1046.67 357.477 1045.97 357.296 1045.2 357.296C1044.37 357.296 1043.63 357.499 1042.99 357.904C1042.37 358.309 1041.88 358.875 1041.52 359.6C1041.18 360.304 1041.01 361.125 1041.01 362.064C1041.01 363.003 1041.19 363.835 1041.55 364.56C1041.94 365.285 1042.45 365.851 1043.09 366.256C1043.73 366.64 1044.43 366.832 1045.2 366.832ZM1064 370V347.6H1072.29C1073.85 347.6 1075.21 347.867 1076.39 348.4C1077.58 348.912 1078.52 349.669 1079.2 350.672C1079.88 351.675 1080.23 352.891 1080.23 354.32C1080.23 355.749 1079.88 356.976 1079.2 358C1078.52 359.003 1077.58 359.771 1076.39 360.304C1075.21 360.816 1073.85 361.072 1072.29 361.072H1068.1V370H1064ZM1068.1 357.584H1072.19C1073.62 357.584 1074.63 357.285 1075.2 356.688C1075.78 356.069 1076.07 355.28 1076.07 354.32C1076.07 353.381 1075.78 352.613 1075.2 352.016C1074.63 351.397 1073.62 351.088 1072.19 351.088H1068.1V357.584ZM1082.55 370V347.6H1086.65V370H1082.55ZM1094.41 370.384C1093.47 370.384 1092.6 370.192 1091.79 369.808C1090.98 369.424 1090.32 368.88 1089.81 368.176C1089.31 367.451 1089.07 366.597 1089.07 365.616C1089.07 364.443 1089.36 363.483 1089.93 362.736C1090.51 361.989 1091.3 361.435 1092.3 361.072C1093.33 360.709 1094.47 360.528 1095.73 360.528H1099.5C1099.5 359.803 1099.38 359.195 1099.15 358.704C1098.94 358.213 1098.61 357.84 1098.16 357.584C1097.73 357.307 1097.2 357.168 1096.56 357.168C1095.81 357.168 1095.14 357.339 1094.54 357.68C1093.97 358 1093.61 358.544 1093.49 359.312H1089.39C1089.5 358.16 1089.89 357.168 1090.57 356.336C1091.26 355.504 1092.13 354.864 1093.2 354.416C1094.26 353.968 1095.41 353.744 1096.62 353.744C1098.11 353.744 1099.37 354.021 1100.4 354.576C1101.44 355.131 1102.24 355.92 1102.8 356.944C1103.35 357.947 1103.63 359.141 1103.63 360.528V365.36C1103.67 365.829 1103.84 366.149 1104.14 366.32C1104.44 366.491 1104.83 366.576 1105.33 366.576V370C1104.32 370 1103.48 369.904 1102.8 369.712C1102.14 369.52 1101.59 369.243 1101.17 368.88C1100.74 368.496 1100.38 368.016 1100.08 367.44C1099.59 368.272 1098.82 368.976 1097.77 369.552C1096.75 370.107 1095.63 370.384 1094.41 370.384ZM1095.6 367.088C1096.3 367.088 1096.94 366.928 1097.52 366.608C1098.11 366.288 1098.59 365.84 1098.96 365.264C1099.32 364.688 1099.5 364.027 1099.5 363.28V363.152H1095.98C1095.51 363.152 1095.06 363.227 1094.64 363.376C1094.21 363.504 1093.87 363.717 1093.61 364.016C1093.36 364.293 1093.23 364.677 1093.23 365.168C1093.23 365.829 1093.45 366.32 1093.9 366.64C1094.37 366.939 1094.94 367.088 1095.6 367.088ZM1107.3 370V354.128H1111.36V355.984C1111.92 355.237 1112.65 354.683 1113.57 354.32C1114.51 353.936 1115.45 353.744 1116.39 353.744C1118.22 353.744 1119.73 354.341 1120.9 355.536C1122.07 356.709 1122.66 358.416 1122.66 360.656V370H1118.6V361.2C1118.6 360.005 1118.29 359.045 1117.67 358.32C1117.07 357.573 1116.18 357.2 1115.01 357.2C1113.84 357.2 1112.93 357.573 1112.29 358.32C1111.67 359.045 1111.36 360.005 1111.36 361.2V370H1107.3ZM1125.27 370V354.128H1129.33V355.984C1129.89 355.237 1130.62 354.683 1131.54 354.32C1132.48 353.936 1133.42 353.744 1134.36 353.744C1136.19 353.744 1137.69 354.341 1138.87 355.536C1140.04 356.709 1140.63 358.416 1140.63 360.656V370H1136.56V361.2C1136.56 360.005 1136.25 359.045 1135.64 358.32C1135.04 357.573 1134.15 357.2 1132.98 357.2C1131.81 357.2 1130.9 357.573 1130.26 358.32C1129.64 359.045 1129.33 360.005 1129.33 361.2V370H1125.27ZM1150.82 370.384C1149.16 370.384 1147.72 370.021 1146.5 369.296C1145.31 368.571 1144.38 367.579 1143.72 366.32C1143.06 365.061 1142.72 363.643 1142.72 362.064C1142.72 360.379 1143.07 358.917 1143.75 357.68C1144.43 356.443 1145.38 355.483 1146.6 354.8C1147.81 354.096 1149.22 353.744 1150.82 353.744C1152.4 353.744 1153.78 354.085 1154.95 354.768C1156.14 355.451 1157.07 356.389 1157.73 357.584C1158.42 358.779 1158.76 360.155 1158.76 361.712C1158.76 361.989 1158.75 362.267 1158.72 362.544C1158.7 362.8 1158.67 363.045 1158.63 363.28H1146.85C1146.92 364.027 1147.11 364.688 1147.43 365.264C1147.77 365.819 1148.22 366.256 1148.77 366.576C1149.35 366.875 1150 367.024 1150.72 367.024C1151.47 367.024 1152.11 366.864 1152.64 366.544C1153.2 366.224 1153.64 365.733 1153.96 365.072H1158.34C1158.04 366.011 1157.56 366.885 1156.9 367.696C1156.24 368.507 1155.4 369.157 1154.37 369.648C1153.37 370.139 1152.19 370.384 1150.82 370.384ZM1146.88 360.56H1154.53C1154.51 359.493 1154.12 358.651 1153.35 358.032C1152.6 357.413 1151.72 357.104 1150.69 357.104C1149.82 357.104 1149.01 357.381 1148.26 357.936C1147.51 358.469 1147.06 359.344 1146.88 360.56ZM1160.92 370V354.128H1164.99V356.496C1165.54 355.6 1166.25 354.917 1167.1 354.448C1167.95 353.979 1168.9 353.744 1169.95 353.744V358.032H1168.86C1167.56 358.032 1166.59 358.341 1165.95 358.96C1165.31 359.579 1164.99 360.613 1164.99 362.064V370H1160.92ZM1178.25 370L1186.44 347.6H1191.05L1199.24 370H1194.89L1193.13 364.912H1184.33L1182.54 370H1178.25ZM1185.48 361.616H1191.98L1188.71 352.304L1185.48 361.616ZM1207.74 377.424C1206.29 377.424 1204.99 377.264 1203.84 376.944C1202.69 376.624 1201.77 376.101 1201.09 375.376C1200.43 374.672 1200.1 373.744 1200.1 372.592C1200.1 371.845 1200.26 371.195 1200.58 370.64C1200.9 370.107 1201.39 369.637 1202.05 369.232C1201.49 368.912 1201.08 368.507 1200.8 368.016C1200.52 367.525 1200.38 366.96 1200.38 366.32C1200.38 364.912 1201.05 363.824 1202.37 363.056C1201.9 362.565 1201.54 362.011 1201.28 361.392C1201.02 360.752 1200.9 360.091 1200.9 359.408C1200.9 358.256 1201.17 357.264 1201.73 356.432C1202.28 355.579 1203.05 354.917 1204.03 354.448C1205.01 353.979 1206.13 353.744 1207.39 353.744C1208.31 353.744 1209.15 353.872 1209.92 354.128H1215.62V357.2H1213.41C1213.54 357.563 1213.64 357.925 1213.73 358.288C1213.84 358.651 1213.89 359.024 1213.89 359.408C1213.89 360.517 1213.6 361.499 1213.02 362.352C1212.45 363.205 1211.67 363.877 1210.69 364.368C1209.73 364.837 1208.63 365.072 1207.39 365.072C1206.86 365.072 1206.37 365.029 1205.92 364.944C1205.47 364.837 1205.04 364.677 1204.61 364.464C1204.14 364.699 1203.9 365.072 1203.9 365.584C1203.9 366.523 1204.68 366.992 1206.24 366.992H1209.15C1210.43 366.992 1211.52 367.173 1212.42 367.536C1213.33 367.877 1214.03 368.421 1214.5 369.168C1214.97 369.915 1215.2 370.864 1215.2 372.016C1215.2 373.125 1214.87 374.085 1214.21 374.896C1213.55 375.707 1212.65 376.325 1211.52 376.752C1210.39 377.2 1209.13 377.424 1207.74 377.424ZM1207.74 374.224C1208.77 374.224 1209.63 374.053 1210.34 373.712C1211.06 373.392 1211.42 372.901 1211.42 372.24C1211.42 370.981 1210.55 370.352 1208.8 370.352H1206.5C1205.64 370.352 1204.98 370.512 1204.51 370.832C1204.06 371.152 1203.84 371.621 1203.84 372.24C1203.84 372.731 1204.02 373.115 1204.38 373.392C1204.75 373.691 1205.23 373.904 1205.82 374.032C1206.42 374.16 1207.06 374.224 1207.74 374.224ZM1207.36 361.872C1208.17 361.872 1208.83 361.648 1209.34 361.2C1209.88 360.731 1210.14 360.133 1210.14 359.408C1210.14 358.704 1209.88 358.117 1209.34 357.648C1208.83 357.179 1208.17 356.944 1207.36 356.944C1206.55 356.944 1205.89 357.179 1205.38 357.648C1204.89 358.117 1204.64 358.704 1204.64 359.408C1204.64 360.133 1204.88 360.731 1205.34 361.2C1205.84 361.648 1206.51 361.872 1207.36 361.872ZM1224.73 370.384C1223.06 370.384 1221.62 370.021 1220.41 369.296C1219.21 368.571 1218.28 367.579 1217.62 366.32C1216.96 365.061 1216.63 363.643 1216.63 362.064C1216.63 360.379 1216.97 358.917 1217.66 357.68C1218.34 356.443 1219.29 355.483 1220.5 354.8C1221.72 354.096 1223.13 353.744 1224.73 353.744C1226.31 353.744 1227.68 354.085 1228.86 354.768C1230.05 355.451 1230.98 356.389 1231.64 357.584C1232.32 358.779 1232.66 360.155 1232.66 361.712C1232.66 361.989 1232.65 362.267 1232.63 362.544C1232.61 362.8 1232.58 363.045 1232.54 363.28H1220.76C1220.82 364.027 1221.02 364.688 1221.34 365.264C1221.68 365.819 1222.12 366.256 1222.68 366.576C1223.26 366.875 1223.91 367.024 1224.63 367.024C1225.38 367.024 1226.02 366.864 1226.55 366.544C1227.11 366.224 1227.54 365.733 1227.86 365.072H1232.25C1231.95 366.011 1231.47 366.885 1230.81 367.696C1230.15 368.507 1229.3 369.157 1228.28 369.648C1227.28 370.139 1226.09 370.384 1224.73 370.384ZM1220.79 360.56H1228.44C1228.42 359.493 1228.02 358.651 1227.26 358.032C1226.51 357.413 1225.62 357.104 1224.6 357.104C1223.72 357.104 1222.91 357.381 1222.17 357.936C1221.42 358.469 1220.96 359.344 1220.79 360.56ZM1234.83 370V354.128H1238.89V355.984C1239.45 355.237 1240.19 354.683 1241.1 354.32C1242.04 353.936 1242.98 353.744 1243.92 353.744C1245.75 353.744 1247.26 354.341 1248.43 355.536C1249.6 356.709 1250.19 358.416 1250.19 360.656V370H1246.13V361.2C1246.13 360.005 1245.82 359.045 1245.2 358.32C1244.6 357.573 1243.72 357.2 1242.54 357.2C1241.37 357.2 1240.46 357.573 1239.82 358.32C1239.2 359.045 1238.89 360.005 1238.89 361.2V370H1234.83ZM1259.04 370C1257.33 370 1256.04 369.584 1255.17 368.752C1254.31 367.92 1253.89 366.672 1253.89 365.008V357.552H1251.84V354.128H1253.89V350.256H1257.98V354.128H1261.6V357.552H1257.98V365.04C1257.98 365.637 1258.14 366.043 1258.46 366.256C1258.78 366.469 1259.2 366.576 1259.71 366.576H1261.6V370H1259.04Z" fill="white"/>
<path d="M931.079 548V525.6H938.855C940.413 525.6 941.757 525.856 942.887 526.368C944.039 526.859 944.935 527.584 945.575 528.544C946.215 529.504 946.535 530.677 946.535 532.064C946.535 533.664 946.109 534.944 945.255 535.904C944.402 536.864 943.239 537.525 941.767 537.888L948.007 548H943.175L937.671 538.56H935.175V548H931.079ZM935.175 535.072H938.759C939.719 535.072 940.455 534.944 940.967 534.688C941.501 534.411 941.863 534.048 942.055 533.6C942.269 533.152 942.375 532.64 942.375 532.064C942.375 531.488 942.269 530.976 942.055 530.528C941.863 530.08 941.501 529.728 940.967 529.472C940.455 529.216 939.719 529.088 938.759 529.088H935.175V535.072ZM955.962 548.384C954.298 548.384 952.858 548.021 951.641 547.296C950.447 546.571 949.519 545.579 948.858 544.32C948.196 543.061 947.866 541.643 947.866 540.064C947.866 538.379 948.207 536.917 948.89 535.68C949.572 534.443 950.522 533.483 951.738 532.8C952.954 532.096 954.362 531.744 955.962 531.744C957.54 531.744 958.916 532.085 960.09 532.768C961.284 533.451 962.212 534.389 962.874 535.584C963.556 536.779 963.898 538.155 963.898 539.712C963.898 539.989 963.887 540.267 963.866 540.544C963.844 540.8 963.812 541.045 963.77 541.28H951.994C952.058 542.027 952.25 542.688 952.57 543.264C952.911 543.819 953.359 544.256 953.914 544.576C954.49 544.875 955.14 545.024 955.866 545.024C956.612 545.024 957.252 544.864 957.786 544.544C958.34 544.224 958.778 543.733 959.098 543.072H963.482C963.183 544.011 962.703 544.885 962.042 545.696C961.38 546.507 960.538 547.157 959.514 547.648C958.511 548.139 957.327 548.384 955.962 548.384ZM952.026 538.56H959.674C959.652 537.493 959.258 536.651 958.49 536.032C957.743 535.413 956.858 535.104 955.834 535.104C954.959 535.104 954.148 535.381 953.402 535.936C952.655 536.469 952.196 537.344 952.026 538.56ZM969.92 548L963.968 532.128H968.32L972.416 544.32L976.48 532.128H980.8L974.848 548H969.92ZM989.024 548.384C987.36 548.384 985.92 548.021 984.704 547.296C983.509 546.571 982.581 545.579 981.92 544.32C981.259 543.061 980.928 541.643 980.928 540.064C980.928 538.379 981.269 536.917 981.952 535.68C982.635 534.443 983.584 533.483 984.8 532.8C986.016 532.096 987.424 531.744 989.024 531.744C990.603 531.744 991.979 532.085 993.152 532.768C994.347 533.451 995.275 534.389 995.936 535.584C996.619 536.779 996.96 538.155 996.96 539.712C996.96 539.989 996.949 540.267 996.928 540.544C996.907 540.8 996.875 541.045 996.832 541.28H985.056C985.12 542.027 985.312 542.688 985.632 543.264C985.973 543.819 986.421 544.256 986.976 544.576C987.552 544.875 988.203 545.024 988.928 545.024C989.675 545.024 990.315 544.864 990.848 544.544C991.403 544.224 991.84 543.733 992.16 543.072H996.544C996.245 544.011 995.765 544.885 995.104 545.696C994.443 546.507 993.6 547.157 992.576 547.648C991.573 548.139 990.389 548.384 989.024 548.384ZM985.088 538.56H992.736C992.715 537.493 992.32 536.651 991.552 536.032C990.805 535.413 989.92 535.104 988.896 535.104C988.021 535.104 987.211 535.381 986.464 535.936C985.717 536.469 985.259 537.344 985.088 538.56ZM999.128 548V532.128H1003.19V533.984C1003.75 533.237 1004.48 532.683 1005.4 532.32C1006.34 531.936 1007.28 531.744 1008.22 531.744C1010.05 531.744 1011.55 532.341 1012.73 533.536C1013.9 534.709 1014.49 536.416 1014.49 538.656V548H1010.42V539.2C1010.42 538.005 1010.11 537.045 1009.5 536.32C1008.9 535.573 1008.01 535.2 1006.84 535.2C1005.67 535.2 1004.76 535.573 1004.12 536.32C1003.5 537.045 1003.19 538.005 1003.19 539.2V548H999.128ZM1023.3 548.384C1021.94 548.384 1020.78 548.096 1019.82 547.52C1018.86 546.923 1018.12 546.112 1017.61 545.088C1017.1 544.043 1016.84 542.859 1016.84 541.536V532.128H1020.9V540.928C1020.9 542.101 1021.2 543.061 1021.8 543.808C1022.42 544.555 1023.31 544.928 1024.49 544.928C1025.7 544.928 1026.61 544.565 1027.21 543.84C1027.81 543.115 1028.1 542.144 1028.1 540.928V532.128H1032.2V548H1028.1V546.144C1027.57 546.869 1026.87 547.424 1025.99 547.808C1025.14 548.192 1024.24 548.384 1023.3 548.384ZM1042.65 548.384C1040.99 548.384 1039.55 548.021 1038.33 547.296C1037.13 546.571 1036.21 545.579 1035.55 544.32C1034.88 543.061 1034.55 541.643 1034.55 540.064C1034.55 538.379 1034.89 536.917 1035.58 535.68C1036.26 534.443 1037.21 533.483 1038.43 532.8C1039.64 532.096 1041.05 531.744 1042.65 531.744C1044.23 531.744 1045.6 532.085 1046.78 532.768C1047.97 533.451 1048.9 534.389 1049.56 535.584C1050.24 536.779 1050.59 538.155 1050.59 539.712C1050.59 539.989 1050.57 540.267 1050.55 540.544C1050.53 540.8 1050.5 541.045 1050.46 541.28H1038.68C1038.75 542.027 1038.94 542.688 1039.26 543.264C1039.6 543.819 1040.05 544.256 1040.6 544.576C1041.18 544.875 1041.83 545.024 1042.55 545.024C1043.3 545.024 1043.94 544.864 1044.47 544.544C1045.03 544.224 1045.47 543.733 1045.79 543.072H1050.17C1049.87 544.011 1049.39 544.885 1048.73 545.696C1048.07 546.507 1047.23 547.157 1046.2 547.648C1045.2 548.139 1044.01 548.384 1042.65 548.384ZM1038.71 538.56H1046.36C1046.34 537.493 1045.95 536.651 1045.18 536.032C1044.43 535.413 1043.55 535.104 1042.52 535.104C1041.65 535.104 1040.84 535.381 1040.09 535.936C1039.34 536.469 1038.88 537.344 1038.71 538.56ZM1071.42 548.384C1069.93 548.384 1068.49 548.117 1067.1 547.584C1065.74 547.051 1064.52 546.283 1063.46 545.28C1062.39 544.277 1061.55 543.061 1060.93 541.632C1060.31 540.203 1060 538.592 1060 536.8C1060 535.008 1060.31 533.397 1060.93 531.968C1061.55 530.539 1062.39 529.323 1063.46 528.32C1064.52 527.317 1065.74 526.549 1067.1 526.016C1068.49 525.483 1069.93 525.216 1071.42 525.216C1072.94 525.216 1074.38 525.483 1075.74 526.016C1077.13 526.549 1078.36 527.317 1079.42 528.32C1080.49 529.323 1081.33 530.539 1081.95 531.968C1082.57 533.397 1082.88 535.008 1082.88 536.8C1082.88 538.592 1082.57 540.203 1081.95 541.632C1081.33 543.061 1080.49 544.277 1079.42 545.28C1078.36 546.283 1077.13 547.051 1075.74 547.584C1074.38 548.117 1072.94 548.384 1071.42 548.384ZM1071.42 544.672C1072.62 544.672 1073.77 544.395 1074.88 543.84C1075.99 543.264 1076.9 542.389 1077.6 541.216C1078.3 540.043 1078.66 538.571 1078.66 536.8C1078.66 535.008 1078.3 533.525 1077.6 532.352C1076.9 531.179 1075.99 530.315 1074.88 529.76C1073.77 529.184 1072.62 528.896 1071.42 528.896C1070.25 528.896 1069.11 529.184 1068 529.76C1066.89 530.315 1065.98 531.179 1065.28 532.352C1064.58 533.525 1064.22 535.008 1064.22 536.8C1064.22 538.571 1064.58 540.043 1065.28 541.216C1065.98 542.389 1066.89 543.264 1068 543.84C1069.11 544.395 1070.25 544.672 1071.42 544.672ZM1085.63 555.04V532.128H1089.69V534.336C1090.31 533.483 1091.08 532.843 1092 532.416C1092.93 531.968 1093.95 531.744 1095.04 531.744C1096.57 531.744 1097.88 532.117 1098.97 532.864C1100.08 533.611 1100.92 534.613 1101.5 535.872C1102.1 537.109 1102.4 538.485 1102.4 540C1102.4 541.515 1102.1 542.912 1101.5 544.192C1100.9 545.472 1100.05 546.496 1098.94 547.264C1097.85 548.011 1096.55 548.384 1095.04 548.384C1093.69 548.384 1092.57 548.107 1091.68 547.552C1090.8 546.997 1090.15 546.421 1089.72 545.824V555.04H1085.63ZM1093.95 544.8C1094.8 544.8 1095.55 544.587 1096.19 544.16C1096.83 543.712 1097.33 543.125 1097.69 542.4C1098.05 541.675 1098.24 540.875 1098.24 540C1098.24 538.997 1098.03 538.155 1097.63 537.472C1097.24 536.768 1096.72 536.235 1096.06 535.872C1095.42 535.509 1094.72 535.328 1093.95 535.328C1093.14 535.328 1092.41 535.531 1091.77 535.936C1091.13 536.341 1090.62 536.907 1090.24 537.632C1089.87 538.336 1089.69 539.147 1089.69 540.064C1089.69 540.939 1089.87 541.739 1090.24 542.464C1090.6 543.189 1091.1 543.765 1091.74 544.192C1092.38 544.597 1093.12 544.8 1093.95 544.8ZM1112.34 548.384C1110.67 548.384 1109.23 548.021 1108.02 547.296C1106.82 546.571 1105.89 545.579 1105.23 544.32C1104.57 543.061 1104.24 541.643 1104.24 540.064C1104.24 538.379 1104.58 536.917 1105.26 535.68C1105.95 534.443 1106.9 533.483 1108.11 532.8C1109.33 532.096 1110.74 531.744 1112.34 531.744C1113.92 531.744 1115.29 532.085 1116.46 532.768C1117.66 533.451 1118.59 534.389 1119.25 535.584C1119.93 536.779 1120.27 538.155 1120.27 539.712C1120.27 539.989 1120.26 540.267 1120.24 540.544C1120.22 540.8 1120.19 541.045 1120.14 541.28H1108.37C1108.43 542.027 1108.62 542.688 1108.94 543.264C1109.29 543.819 1109.73 544.256 1110.29 544.576C1110.86 544.875 1111.52 545.024 1112.24 545.024C1112.99 545.024 1113.63 544.864 1114.16 544.544C1114.72 544.224 1115.15 543.733 1115.47 543.072H1119.86C1119.56 544.011 1119.08 544.885 1118.42 545.696C1117.76 546.507 1116.91 547.157 1115.89 547.648C1114.89 548.139 1113.7 548.384 1112.34 548.384ZM1108.4 538.56H1116.05C1116.03 537.493 1115.63 536.651 1114.86 536.032C1114.12 535.413 1113.23 535.104 1112.21 535.104C1111.33 535.104 1110.52 535.381 1109.78 535.936C1109.03 536.469 1108.57 537.344 1108.4 538.56ZM1122.44 548V532.128H1126.5V534.496C1127.06 533.6 1127.76 532.917 1128.62 532.448C1129.47 531.979 1130.42 531.744 1131.46 531.744V536.032H1130.38C1129.07 536.032 1128.1 536.341 1127.46 536.96C1126.82 537.579 1126.5 538.613 1126.5 540.064V548H1122.44ZM1137.93 548.384C1136.99 548.384 1136.12 548.192 1135.31 547.808C1134.49 547.424 1133.83 546.88 1133.32 546.176C1132.83 545.451 1132.59 544.597 1132.59 543.616C1132.59 542.443 1132.87 541.483 1133.45 540.736C1134.03 539.989 1134.81 539.435 1135.82 539.072C1136.84 538.709 1137.98 538.528 1139.24 538.528H1143.02C1143.02 537.803 1142.9 537.195 1142.67 536.704C1142.45 536.213 1142.12 535.84 1141.67 535.584C1141.25 535.307 1140.71 535.168 1140.07 535.168C1139.33 535.168 1138.65 535.339 1138.06 535.68C1137.48 536 1137.13 536.544 1137 537.312H1132.91C1133.01 536.16 1133.41 535.168 1134.09 534.336C1134.77 533.504 1135.65 532.864 1136.71 532.416C1137.78 531.968 1138.92 531.744 1140.14 531.744C1141.63 531.744 1142.89 532.021 1143.91 532.576C1144.96 533.131 1145.76 533.92 1146.31 534.944C1146.87 535.947 1147.15 537.141 1147.15 538.528V543.36C1147.19 543.829 1147.36 544.149 1147.66 544.32C1147.96 544.491 1148.35 544.576 1148.84 544.576V548C1147.84 548 1147 547.904 1146.31 547.712C1145.65 547.52 1145.11 547.243 1144.68 546.88C1144.25 546.496 1143.89 546.016 1143.59 545.44C1143.1 546.272 1142.33 546.976 1141.29 547.552C1140.27 548.107 1139.15 548.384 1137.93 548.384ZM1139.11 545.088C1139.82 545.088 1140.46 544.928 1141.03 544.608C1141.63 544.288 1142.11 543.84 1142.47 543.264C1142.84 542.688 1143.02 542.027 1143.02 541.28V541.152H1139.5C1139.03 541.152 1138.58 541.227 1138.15 541.376C1137.73 541.504 1137.39 541.717 1137.13 542.016C1136.87 542.293 1136.75 542.677 1136.75 543.168C1136.75 543.829 1136.97 544.32 1137.42 544.64C1137.89 544.939 1138.45 545.088 1139.11 545.088ZM1156.27 548C1154.57 548 1153.28 547.584 1152.4 546.752C1151.55 545.92 1151.12 544.672 1151.12 543.008V535.552H1149.07V532.128H1151.12V528.256H1155.22V532.128H1158.83V535.552H1155.22V543.04C1155.22 543.637 1155.38 544.043 1155.7 544.256C1156.02 544.469 1156.43 544.576 1156.95 544.576H1158.83V548H1156.27ZM1163.46 530.08C1162.74 530.08 1162.11 529.824 1161.57 529.312C1161.06 528.779 1160.8 528.149 1160.8 527.424C1160.8 526.677 1161.06 526.048 1161.57 525.536C1162.11 525.024 1162.74 524.768 1163.46 524.768C1164.21 524.768 1164.84 525.024 1165.35 525.536C1165.86 526.048 1166.12 526.677 1166.12 527.424C1166.12 528.149 1165.86 528.779 1165.35 529.312C1164.84 529.824 1164.21 530.08 1163.46 530.08ZM1161.41 548V532.128H1165.51V548H1161.41ZM1176.25 548.384C1174.65 548.384 1173.22 548.043 1171.96 547.36C1170.72 546.656 1169.75 545.675 1169.05 544.416C1168.34 543.157 1167.99 541.707 1167.99 540.064C1167.99 538.336 1168.36 536.853 1169.11 535.616C1169.88 534.357 1170.89 533.397 1172.15 532.736C1173.43 532.075 1174.84 531.744 1176.37 531.744C1177.97 531.744 1179.4 532.096 1180.66 532.8C1181.92 533.483 1182.91 534.443 1183.64 535.68C1184.39 536.917 1184.76 538.379 1184.76 540.064C1184.76 541.664 1184.4 543.093 1183.67 544.352C1182.95 545.611 1181.94 546.603 1180.66 547.328C1179.4 548.032 1177.93 548.384 1176.25 548.384ZM1176.31 544.832C1177.16 544.832 1177.9 544.619 1178.52 544.192C1179.16 543.744 1179.66 543.157 1180.02 542.432C1180.39 541.685 1180.57 540.875 1180.57 540C1180.57 538.997 1180.36 538.144 1179.96 537.44C1179.57 536.736 1179.06 536.203 1178.42 535.84C1177.78 535.477 1177.08 535.296 1176.31 535.296C1175.48 535.296 1174.74 535.499 1174.1 535.904C1173.48 536.309 1172.99 536.875 1172.63 537.6C1172.29 538.304 1172.12 539.125 1172.12 540.064C1172.12 541.003 1172.3 541.835 1172.66 542.56C1173.05 543.285 1173.56 543.851 1174.2 544.256C1174.84 544.64 1175.54 544.832 1176.31 544.832ZM1187.13 548V532.128H1191.19V533.984C1191.75 533.237 1192.48 532.683 1193.4 532.32C1194.34 531.936 1195.28 531.744 1196.22 531.744C1198.05 531.744 1199.55 532.341 1200.73 533.536C1201.9 534.709 1202.49 536.416 1202.49 538.656V548H1198.42V539.2C1198.42 538.005 1198.11 537.045 1197.5 536.32C1196.9 535.573 1196.01 535.2 1194.84 535.2C1193.67 535.2 1192.76 535.573 1192.12 536.32C1191.5 537.045 1191.19 538.005 1191.19 539.2V548H1187.13ZM1211.59 548.384C1210.4 548.384 1209.28 548.171 1208.23 547.744C1207.19 547.296 1206.32 546.667 1205.64 545.856C1204.98 545.045 1204.62 544.096 1204.55 543.008H1208.65C1208.75 543.691 1209.09 544.224 1209.64 544.608C1210.22 544.992 1210.86 545.184 1211.56 545.184C1212.16 545.184 1212.71 545.056 1213.22 544.8C1213.76 544.523 1214.02 544.096 1214.02 543.52C1214.02 543.072 1213.83 542.72 1213.45 542.464C1213.06 542.208 1212.62 542.005 1212.1 541.856C1211.59 541.707 1211.12 541.579 1210.7 541.472C1209.63 541.216 1208.66 540.917 1207.78 540.576C1206.91 540.213 1206.22 539.723 1205.7 539.104C1205.19 538.464 1204.94 537.621 1204.94 536.576C1204.94 535.552 1205.22 534.677 1205.8 533.952C1206.4 533.227 1207.18 532.683 1208.14 532.32C1209.12 531.936 1210.17 531.744 1211.3 531.744C1213.07 531.744 1214.57 532.192 1215.78 533.088C1217 533.984 1217.66 535.307 1217.77 537.056H1213.9C1213.83 536.373 1213.54 535.861 1213.03 535.52C1212.54 535.157 1211.92 534.976 1211.18 534.976C1210.58 534.976 1210.05 535.083 1209.58 535.296C1209.11 535.509 1208.87 535.915 1208.87 536.512C1208.87 536.939 1209.06 537.291 1209.45 537.568C1209.83 537.824 1210.29 538.037 1210.82 538.208C1211.36 538.357 1211.83 538.485 1212.23 538.592C1213.34 538.869 1214.31 539.189 1215.14 539.552C1216 539.915 1216.67 540.405 1217.16 541.024C1217.65 541.643 1217.91 542.475 1217.93 543.52C1217.93 544.565 1217.63 545.451 1217.03 546.176C1216.46 546.901 1215.69 547.456 1214.73 547.84C1213.77 548.203 1212.72 548.384 1211.59 548.384ZM1226.64 548L1234.83 525.6H1239.44L1247.63 548H1243.28L1241.52 542.912H1232.72L1230.93 548H1226.64ZM1233.87 539.616H1240.37L1237.1 530.304L1233.87 539.616ZM1256.14 555.424C1254.68 555.424 1253.38 555.264 1252.23 554.944C1251.08 554.624 1250.16 554.101 1249.48 553.376C1248.82 552.672 1248.49 551.744 1248.49 550.592C1248.49 549.845 1248.65 549.195 1248.97 548.64C1249.29 548.107 1249.78 547.637 1250.44 547.232C1249.88 546.912 1249.47 546.507 1249.19 546.016C1248.91 545.525 1248.78 544.96 1248.78 544.32C1248.78 542.912 1249.44 541.824 1250.76 541.056C1250.29 540.565 1249.93 540.011 1249.67 539.392C1249.42 538.752 1249.29 538.091 1249.29 537.408C1249.29 536.256 1249.56 535.264 1250.12 534.432C1250.67 533.579 1251.44 532.917 1252.42 532.448C1253.4 531.979 1254.52 531.744 1255.78 531.744C1256.7 531.744 1257.54 531.872 1258.31 532.128H1264.01V535.2H1261.8C1261.93 535.563 1262.03 535.925 1262.12 536.288C1262.23 536.651 1262.28 537.024 1262.28 537.408C1262.28 538.517 1261.99 539.499 1261.42 540.352C1260.84 541.205 1260.06 541.877 1259.08 542.368C1258.12 542.837 1257.02 543.072 1255.78 543.072C1255.25 543.072 1254.76 543.029 1254.31 542.944C1253.86 542.837 1253.43 542.677 1253 542.464C1252.53 542.699 1252.3 543.072 1252.3 543.584C1252.3 544.523 1253.07 544.992 1254.63 544.992H1257.54C1258.82 544.992 1259.91 545.173 1260.81 545.536C1261.72 545.877 1262.42 546.421 1262.89 547.168C1263.36 547.915 1263.59 548.864 1263.59 550.016C1263.59 551.125 1263.26 552.085 1262.6 552.896C1261.94 553.707 1261.04 554.325 1259.91 554.752C1258.78 555.2 1257.52 555.424 1256.14 555.424ZM1256.14 552.224C1257.16 552.224 1258.02 552.053 1258.73 551.712C1259.45 551.392 1259.82 550.901 1259.82 550.24C1259.82 548.981 1258.94 548.352 1257.19 548.352H1254.89C1254.03 548.352 1253.37 548.512 1252.9 548.832C1252.46 549.152 1252.23 549.621 1252.23 550.24C1252.23 550.731 1252.41 551.115 1252.78 551.392C1253.14 551.691 1253.62 551.904 1254.22 552.032C1254.81 552.16 1255.45 552.224 1256.14 552.224ZM1255.75 539.872C1256.56 539.872 1257.22 539.648 1257.74 539.2C1258.27 538.731 1258.54 538.133 1258.54 537.408C1258.54 536.704 1258.27 536.117 1257.74 535.648C1257.22 535.179 1256.56 534.944 1255.75 534.944C1254.94 534.944 1254.28 535.179 1253.77 535.648C1253.28 536.117 1253.03 536.704 1253.03 537.408C1253.03 538.133 1253.27 538.731 1253.74 539.2C1254.23 539.648 1254.9 539.872 1255.75 539.872ZM1273.12 548.384C1271.45 548.384 1270.01 548.021 1268.8 547.296C1267.6 546.571 1266.68 545.579 1266.01 544.32C1265.35 543.061 1265.02 541.643 1265.02 540.064C1265.02 538.379 1265.36 536.917 1266.05 535.68C1266.73 534.443 1267.68 533.483 1268.89 532.8C1270.11 532.096 1271.52 531.744 1273.12 531.744C1274.7 531.744 1276.07 532.085 1277.25 532.768C1278.44 533.451 1279.37 534.389 1280.03 535.584C1280.71 536.779 1281.05 538.155 1281.05 539.712C1281.05 539.989 1281.04 540.267 1281.02 540.544C1281 540.8 1280.97 541.045 1280.93 541.28H1269.15C1269.21 542.027 1269.41 542.688 1269.73 543.264C1270.07 543.819 1270.52 544.256 1271.07 544.576C1271.65 544.875 1272.3 545.024 1273.02 545.024C1273.77 545.024 1274.41 544.864 1274.94 544.544C1275.5 544.224 1275.93 543.733 1276.25 543.072H1280.64C1280.34 544.011 1279.86 544.885 1279.2 545.696C1278.54 546.507 1277.69 547.157 1276.67 547.648C1275.67 548.139 1274.48 548.384 1273.12 548.384ZM1269.18 538.56H1276.83C1276.81 537.493 1276.41 536.651 1275.65 536.032C1274.9 535.413 1274.01 535.104 1272.99 535.104C1272.12 535.104 1271.3 535.381 1270.56 535.936C1269.81 536.469 1269.35 537.344 1269.18 538.56ZM1283.22 548V532.128H1287.29V533.984C1287.84 533.237 1288.58 532.683 1289.49 532.32C1290.43 531.936 1291.37 531.744 1292.31 531.744C1294.14 531.744 1295.65 532.341 1296.82 533.536C1297.99 534.709 1298.58 536.416 1298.58 538.656V548H1294.52V539.2C1294.52 538.005 1294.21 537.045 1293.59 536.32C1292.99 535.573 1292.11 535.2 1290.93 535.2C1289.76 535.2 1288.85 535.573 1288.21 536.32C1287.59 537.045 1287.29 538.005 1287.29 539.2V548H1283.22ZM1307.43 548C1305.72 548 1304.43 547.584 1303.56 546.752C1302.7 545.92 1302.28 544.672 1302.28 543.008V535.552H1300.23V532.128H1302.28V528.256H1306.37V532.128H1309.99V535.552H1306.37V543.04C1306.37 543.637 1306.53 544.043 1306.85 544.256C1307.17 544.469 1307.59 544.576 1308.1 544.576H1309.99V548H1307.43Z" fill="white"/>
<defs>
<filter id="filter0_d_41_92" x="288.296" y="485.982" width="75.038" height="75.0381" filterUnits="userSpaceOnUse" color-interpolation-filters="sRGB">
<feFlood flood-opacity="0" result="BackgroundImageFix"/>
<feColorMatrix in="SourceAlpha" type="matrix" values="0 0 0 0 0 0 0 0 0 0 0 0 0 0 0 0 0 0 127 0" result="hardAlpha"/>
<feOffset dy="6.29522"/>
<feGaussianBlur stdDeviation="5.6657"/>
<feComposite in2="hardAlpha" operator="out"/>
<feColorMatrix type="matrix" values="0 0 0 0 0 0 0 0 0 0 0 0 0 0 0 0 0 0 0.15 0"/>
<feBlend mode="normal" in2="BackgroundImageFix" result="effect1_dropShadow_41_92"/>
<feBlend mode="normal" in="SourceGraphic" in2="effect1_dropShadow_41_92" result="shape"/>
</filter>
<filter id="filter1_d_41_92" x="194.669" y="345.964" width="75.038" height="75.0379" filterUnits="userSpaceOnUse" color-interpolation-filters="sRGB">
<feFlood flood-opacity="0" result="BackgroundImageFix"/>
<feColorMatrix in="SourceAlpha" type="matrix" values="0 0 0 0 0 0 0 0 0 0 0 0 0 0 0 0 0 0 127 0" result="hardAlpha"/>
<feOffset dy="6.29522"/>
<feGaussianBlur stdDeviation="5.6657"/>
<feComposite in2="hardAlpha" operator="out"/>
<feColorMatrix type="matrix" values="0 0 0 0 0 0 0 0 0 0 0 0 0 0 0 0 0 0 0.15 0"/>
<feBlend mode="normal" in2="BackgroundImageFix" result="effect1_dropShadow_41_92"/>
<feBlend mode="normal" in="SourceGraphic" in2="effect1_dropShadow_41_92" result="shape"/>
</filter>
<filter id="filter2_d_41_92" x="274.669" y="183.964" width="75.038" height="75.0379" filterUnits="userSpaceOnUse" color-interpolation-filters="sRGB">
<feFlood flood-opacity="0" result="BackgroundImageFix"/>
<feColorMatrix in="SourceAlpha" type="matrix" values="0 0 0 0 0 0 0 0 0 0 0 0 0 0 0 0 0 0 127 0" result="hardAlpha"/>
<feOffset dy="6.29522"/>
<feGaussianBlur stdDeviation="5.6657"/>
<feComposite in2="hardAlpha" operator="out"/>
<feColorMatrix type="matrix" values="0 0 0 0 0 0 0 0 0 0 0 0 0 0 0 0 0 0 0.15 0"/>
<feBlend mode="normal" in2="BackgroundImageFix" result="effect1_dropShadow_41_92"/>
<feBlend mode="normal" in="SourceGraphic" in2="effect1_dropShadow_41_92" result="shape"/>
</filter>
<filter id="filter3_d_41_92" x="317.669" y="100.964" width="75.038" height="75.0379" filterUnits="userSpaceOnUse" color-interpolation-filters="sRGB">
<feFlood flood-opacity="0" result="BackgroundImageFix"/>
<feColorMatrix in="SourceAlpha" type="matrix" values="0 0 0 0 0 0 0 0 0 0 0 0 0 0 0 0 0 0 127 0" result="hardAlpha"/>
<feOffset dy="6.29522"/>
<feGaussianBlur stdDeviation="5.6657"/>
<feComposite in2="hardAlpha" operator="out"/>
<feColorMatrix type="matrix" values="0 0 0 0 0 0 0 0 0 0 0 0 0 0 0 0 0 0 0.15 0"/>
<feBlend mode="normal" in2="BackgroundImageFix" result="effect1_dropShadow_41_92"/>
<feBlend mode="normal" in="SourceGraphic" in2="effect1_dropShadow_41_92" result="shape"/>
</filter>
<filter id="filter4_d_41_92" x="348.729" y="568.574" width="75.038" height="75.0381" filterUnits="userSpaceOnUse" color-interpolation-filters="sRGB">
<feFlood flood-opacity="0" result="BackgroundImageFix"/>
<feColorMatrix in="SourceAlpha" type="matrix" values="0 0 0 0 0 0 0 0 0 0 0 0 0 0 0 0 0 0 127 0" result="hardAlpha"/>
<feOffset dy="6.29522"/>
<feGaussianBlur stdDeviation="5.6657"/>
<feComposite in2="hardAlpha" operator="out"/>
<feColorMatrix type="matrix" values="0 0 0 0 0 0 0 0 0 0 0 0 0 0 0 0 0 0 0.15 0"/>
<feBlend mode="normal" in2="BackgroundImageFix" result="effect1_dropShadow_41_92"/>
<feBlend mode="normal" in="SourceGraphic" in2="effect1_dropShadow_41_92" result="shape"/>
</filter>
<filter id="filter5_d_41_92" x="119.084" y="423.535" width="75.038" height="75.0379" filterUnits="userSpaceOnUse" color-interpolation-filters="sRGB">
<feFlood flood-opacity="0" result="BackgroundImageFix"/>
<feColorMatrix in="SourceAlpha" type="matrix" values="0 0 0 0 0 0 0 0 0 0 0 0 0 0 0 0 0 0 127 0" result="hardAlpha"/>
<feOffset dy="6.29522"/>
<feGaussianBlur stdDeviation="5.6657"/>
<feComposite in2="hardAlpha" operator="out"/>
<feColorMatrix type="matrix" values="0 0 0 0 0 0 0 0 0 0 0 0 0 0 0 0 0 0 0.15 0"/>
<feBlend mode="normal" in2="BackgroundImageFix" result="effect1_dropShadow_41_92"/>
<feBlend mode="normal" in="SourceGraphic" in2="effect1_dropShadow_41_92" result="shape"/>
</filter>
<filter id="filter6_d_41_92" x="131.669" y="265.964" width="75.038" height="75.0379" filterUnits="userSpaceOnUse" color-interpolation-filters="sRGB">
<feFlood flood-opacity="0" result="BackgroundImageFix"/>
<feColorMatrix in="SourceAlpha" type="matrix" values="0 0 0 0 0 0 0 0 0 0 0 0 0 0 0 0 0 0 127 0" result="hardAlpha"/>
<feOffset dy="6.29522"/>
<feGaussianBlur stdDeviation="5.6657"/>
<feComposite in2="hardAlpha" operator="out"/>
<feColorMatrix type="matrix" values="0 0 0 0 0 0 0 0 0 0 0 0 0 0 0 0 0 0 0.15 0"/>
<feBlend mode="normal" in2="BackgroundImageFix" result="effect1_dropShadow_41_92"/>
<feBlend mode="normal" in="SourceGraphic" in2="effect1_dropShadow_41_92" result="shape"/>
</filter>
<filter id="filter7_d_41_92" x="78.7955" y="562.53" width="75.038" height="75.0381" filterUnits="userSpaceOnUse" color-interpolation-filters="sRGB">
<feFlood flood-opacity="0" result="BackgroundImageFix"/>
<feColorMatrix in="SourceAlpha" type="matrix" values="0 0 0 0 0 0 0 0 0 0 0 0 0 0 0 0 0 0 127 0" result="hardAlpha"/>
<feOffset dy="6.29522"/>
<feGaussianBlur stdDeviation="5.6657"/>
<feComposite in2="hardAlpha" operator="out"/>
<feColorMatrix type="matrix" values="0 0 0 0 0 0 0 0 0 0 0 0 0 0 0 0 0 0 0.15 0"/>
<feBlend mode="normal" in2="BackgroundImageFix" result="effect1_dropShadow_41_92"/>
<feBlend mode="normal" in="SourceGraphic" in2="effect1_dropShadow_41_92" result="shape"/>
</filter>
<filter id="filter8_d_41_92" x="141.243" y="22.663" width="75.038" height="75.0379" filterUnits="userSpaceOnUse" color-interpolation-filters="sRGB">
<feFlood flood-opacity="0" result="BackgroundImageFix"/>
<feColorMatrix in="SourceAlpha" type="matrix" values="0 0 0 0 0 0 0 0 0 0 0 0 0 0 0 0 0 0 127 0" result="hardAlpha"/>
<feOffset dy="6.29522"/>
<feGaussianBlur stdDeviation="5.6657"/>
<feComposite in2="hardAlpha" operator="out"/>
<feColorMatrix type="matrix" values="0 0 0 0 0 0 0 0 0 0 0 0 0 0 0 0 0 0 0.15 0"/>
<feBlend mode="normal" in2="BackgroundImageFix" result="effect1_dropShadow_41_92"/>
<feBlend mode="normal" in="SourceGraphic" in2="effect1_dropShadow_41_92" result="shape"/>
</filter>
<filter id="filter9_d_41_92" x="141.243" y="645.122" width="75.038" height="75.0381" filterUnits="userSpaceOnUse" color-interpolation-filters="sRGB">
<feFlood flood-opacity="0" result="BackgroundImageFix"/>
<feColorMatrix in="SourceAlpha" type="matrix" values="0 0 0 0 0 0 0 0 0 0 0 0 0 0 0 0 0 0 127 0" result="hardAlpha"/>
<feOffset dy="6.29522"/>
<feGaussianBlur stdDeviation="5.6657"/>
<feComposite in2="hardAlpha" operator="out"/>
<feColorMatrix type="matrix" values="0 0 0 0 0 0 0 0 0 0 0 0 0 0 0 0 0 0 0.15 0"/>
<feBlend mode="normal" in2="BackgroundImageFix" result="effect1_dropShadow_41_92"/>
<feBlend mode="normal" in="SourceGraphic" in2="effect1_dropShadow_41_92" result="shape"/>
</filter>
<filter id="filter10_d_41_92" x="0.232744" y="344.972" width="75.038" height="75.0379" filterUnits="userSpaceOnUse" color-interpolation-filters="sRGB">
<feFlood flood-opacity="0" result="BackgroundImageFix"/>
<feColorMatrix in="SourceAlpha" type="matrix" values="0 0 0 0 0 0 0 0 0 0 0 0 0 0 0 0 0 0 127 0" result="hardAlpha"/>
<feOffset dy="6.29522"/>
<feGaussianBlur stdDeviation="5.6657"/>
<feComposite in2="hardAlpha" operator="out"/>
<feColorMatrix type="matrix" values="0 0 0 0 0 0 0 0 0 0 0 0 0 0 0 0 0 0 0.15 0"/>
<feBlend mode="normal" in2="BackgroundImageFix" result="effect1_dropShadow_41_92"/>
<feBlend mode="normal" in="SourceGraphic" in2="effect1_dropShadow_41_92" result="shape"/>
</filter>
<linearGradient id="paint0_linear_41_92" x1="308.122" y1="163.375" x2="663.325" y2="570.879" gradientUnits="userSpaceOnUse">
<stop stop-color="#00A582"/>
<stop offset="1" stop-color="#00FF73"/>
</linearGradient>
<linearGradient id="paint1_linear_41_92" x1="339.549" y1="194.25" x2="639.554" y2="539.984" gradientUnits="userSpaceOnUse">
<stop stop-color="#00A582"/>
<stop offset="1" stop-color="#1B4807"/>
</linearGradient>
<linearGradient id="paint2_linear_41_92" x1="467.695" y1="354.874" x2="515.074" y2="392.39" gradientUnits="userSpaceOnUse">
<stop stop-color="#00A582"/>
<stop offset="1" stop-color="#3C82C3"/>
</linearGradient>
<linearGradient id="paint3_linear_41_92" x1="479.397" y1="361.25" x2="483.658" y2="373.475" gradientUnits="userSpaceOnUse">
<stop stop-color="#00A582"/>
<stop offset="1" stop-color="#3C82C3"/>
</linearGradient>
<linearGradient id="paint4_linear_41_92" x1="444.887" y1="362.876" x2="492.668" y2="402.249" gradientUnits="userSpaceOnUse">
<stop stop-color="#00A582"/>
<stop offset="1" stop-color="#3C82C3"/>
</linearGradient>
<linearGradient id="paint5_linear_41_92" x1="484.338" y1="309.626" x2="490.141" y2="337.201" gradientUnits="userSpaceOnUse">
<stop stop-color="#00A582"/>
<stop offset="1" stop-color="#3C82C3"/>
</linearGradient>
<linearGradient id="paint6_linear_41_92" x1="484.338" y1="321.501" x2="494.323" y2="357.091" gradientUnits="userSpaceOnUse">
<stop stop-color="#00A582"/>
<stop offset="1" stop-color="#3C82C3"/>
</linearGradient>
<linearGradient id="paint7_linear_41_92" x1="530.79" y1="354.873" x2="578.381" y2="393.325" gradientUnits="userSpaceOnUse">
<stop stop-color="#00A582"/>
<stop offset="1" stop-color="#3C82C3"/>
</linearGradient>
<linearGradient id="paint8_linear_41_92" x1="542.846" y1="362.873" x2="591.517" y2="410.848" gradientUnits="userSpaceOnUse">
<stop stop-color="#00A582"/>
<stop offset="1" stop-color="#3C82C3"/>
</linearGradient>
<linearGradient id="paint9_linear_41_92" x1="537.48" y1="366.749" x2="544.216" y2="369.51" gradientUnits="userSpaceOnUse">
<stop stop-color="#00A582"/>
<stop offset="1" stop-color="#3C82C3"/>
</linearGradient>
<linearGradient id="paint10_linear_41_92" x1="871.833" y1="167.125" x2="899.765" y2="198.387" gradientUnits="userSpaceOnUse">
<stop stop-color="#00A582"/>
<stop offset="1" stop-color="#00FF73"/>
</linearGradient>
<linearGradient id="paint11_linear_41_92" x1="871.833" y1="344.125" x2="899.765" y2="375.387" gradientUnits="userSpaceOnUse">
<stop stop-color="#00A582"/>
<stop offset="1" stop-color="#00FF73"/>
</linearGradient>
<linearGradient id="paint12_linear_41_92" x1="871.833" y1="520.125" x2="899.765" y2="551.387" gradientUnits="userSpaceOnUse">
<stop stop-color="#00A582"/>
<stop offset="1" stop-color="#00FF73"/>
</linearGradient>
</defs>
</svg>
